{"nbformat":4,"nbformat_minor":0,"metadata":{"colab":{"provenance":[]},"kernelspec":{"name":"python3","display_name":"Python 3"},"language_info":{"name":"python"}},"cells":[{"cell_type":"markdown","source":["[![Open In Colab](https://colab.research.google.com/assets/colab-badge.svg)](https://colab.research.google.com/github/googlecolab/colabtools/blob/master/notebooks/colab-github-demo.ipynb)"],"metadata":{"id":"sRn7dfKmV71y"}},{"cell_type":"code","execution_count":null,"metadata":{"colab":{"base_uri":"https://localhost:8080/"},"id":"7MI5mnk9p2lo","executionInfo":{"status":"ok","timestamp":1668370916988,"user_tz":300,"elapsed":1949,"user":{"displayName":"yeeb","userId":"09671650123333902832"}},"outputId":"1f2d9d36-efea-4046-b729-7a4fa45ad188"},"outputs":[{"output_type":"stream","name":"stdout","text":["Cloning into 'trading-fours'...\n","remote: Enumerating objects: 8, done.\u001b[K\n","remote: Counting objects: 100% (8/8), done.\u001b[K\n","remote: Compressing objects: 100% (7/7), done.\u001b[K\n","remote: Total 8 (delta 1), reused 0 (delta 0), pack-reused 0\u001b[K\n","Unpacking objects: 100% (8/8), done.\n"]}],"source":["!git clone https://github.com/sirmammingtonham/trading-fours"]},{"cell_type":"code","source":["%cd trading-fours/"],"metadata":{"colab":{"base_uri":"https://localhost:8080/"},"id":"QmiA_4W1p9um","executionInfo":{"status":"ok","timestamp":1668370922796,"user_tz":300,"elapsed":3,"user":{"displayName":"yeeb","userId":"09671650123333902832"}},"outputId":"905461ef-6fe2-42f6-9c5f-ff82a6e0d272"},"execution_count":null,"outputs":[{"output_type":"stream","name":"stdout","text":["/content/trading-fours\n"]}]},{"cell_type":"code","source":["!unzip Jazz-Midi.tar.xz.zip"],"metadata":{"colab":{"base_uri":"https://localhost:8080/"},"id":"94wNP3-2p_s4","executionInfo":{"status":"ok","timestamp":1668370936987,"user_tz":300,"elapsed":3,"user":{"displayName":"yeeb","userId":"09671650123333902832"}},"outputId":"6ace4c2a-9976-401a-e285-d941594a7b0e"},"execution_count":null,"outputs":[{"output_type":"stream","name":"stdout","text":["Archive:  Jazz-Midi.tar.xz.zip\n","  inflating: Jazz-Midi.tar.xz        \n"]}]},{"cell_type":"code","source":["!tar -xf Jazz-Midi.tar.xz"],"metadata":{"id":"8IOIjJA3qDFD"},"execution_count":null,"outputs":[]},{"cell_type":"code","source":["%cd /content"],"metadata":{"colab":{"base_uri":"https://localhost:8080/"},"id":"M3dV_lapq0xt","executionInfo":{"status":"ok","timestamp":1668371148201,"user_tz":300,"elapsed":1,"user":{"displayName":"yeeb","userId":"09671650123333902832"}},"outputId":"c5fd0d97-968a-478b-cfb9-5f9951281eb1"},"execution_count":null,"outputs":[{"output_type":"stream","name":"stdout","text":["/content\n"]}]},{"cell_type":"code","source":["!pip install mido"],"metadata":{"colab":{"base_uri":"https://localhost:8080/"},"id":"Q1AU2yf3q9en","executionInfo":{"status":"ok","timestamp":1668371245166,"user_tz":300,"elapsed":4706,"user":{"displayName":"yeeb","userId":"09671650123333902832"}},"outputId":"b96a6066-569f-408b-e6a4-c053be8cdca4"},"execution_count":null,"outputs":[{"output_type":"stream","name":"stdout","text":["Looking in indexes: https://pypi.org/simple, https://us-python.pkg.dev/colab-wheels/public/simple/\n","Collecting mido\n","  Downloading mido-1.2.10-py2.py3-none-any.whl (51 kB)\n","\u001b[K     |████████████████████████████████| 51 kB 2.7 MB/s \n","\u001b[?25hInstalling collected packages: mido\n","Successfully installed mido-1.2.10\n"]}]},{"cell_type":"code","source":["import mido"],"metadata":{"id":"YOY-6_vGrNHE"},"execution_count":null,"outputs":[]},{"cell_type":"code","source":["mid = mido.MidiFile('/content/trading-fours/Jazz Midi/5To10.mid', clip=True)\n","print(mid)"],"metadata":{"colab":{"base_uri":"https://localhost:8080/"},"id":"fBLR71YCrnXl","executionInfo":{"status":"ok","timestamp":1668371488577,"user_tz":300,"elapsed":286,"user":{"displayName":"yeeb","userId":"09671650123333902832"}},"outputId":"34a22ae0-9988-4fe8-f86b-5b6368550144"},"execution_count":null,"outputs":[{"output_type":"stream","name":"stdout","text":["MidiFile(type=0, ticks_per_beat=120, tracks=[\n","  MidiTrack([\n","    MetaMessage('track_name', name='untitled', time=0),\n","    MetaMessage('copyright', text='Copyright © 1996 by MANU.', time=0),\n","    MetaMessage('text', text='MANU', time=0),\n","    MetaMessage('time_signature', numerator=4, denominator=4, clocks_per_click=24, notated_32nd_notes_per_beat=8, time=0),\n","    MetaMessage('key_signature', key='C', time=0),\n","    MetaMessage('set_tempo', tempo=375000, time=0),\n","    Message('program_change', channel=9, program=40, time=0),\n","    Message('program_change', channel=9, program=0, time=0),\n","    Message('note_on', channel=9, note=36, velocity=100, time=0),\n","    Message('note_on', channel=9, note=57, velocity=100, time=0),\n","    Message('program_change', channel=1, program=35, time=0),\n","    Message('control_change', channel=1, control=7, value=127, time=0),\n","    Message('note_on', channel=1, note=37, velocity=100, time=0),\n","    Message('program_change', channel=2, program=99, time=0),\n","    Message('control_change', channel=2, control=7, value=70, time=0),\n","    Message('note_on', channel=2, note=37, velocity=110, time=0),\n","    Message('control_change', channel=2, control=93, value=127, time=0),\n","    Message('program_change', channel=3, program=20, time=0),\n","    Message('control_change', channel=3, control=7, value=35, time=0),\n","    Message('note_on', channel=3, note=37, velocity=110, time=0),\n","    Message('control_change', channel=3, control=93, value=127, time=0),\n","    Message('program_change', channel=4, program=92, time=0),\n","    Message('control_change', channel=4, control=7, value=80, time=0),\n","    Message('control_change', channel=4, control=91, value=127, time=0),\n","    Message('program_change', channel=4, program=92, time=0),\n","    Message('control_change', channel=4, control=7, value=60, time=0),\n","    Message('control_change', channel=4, control=91, value=127, time=0),\n","    Message('note_on', channel=9, note=57, velocity=0, time=14),\n","    Message('note_on', channel=9, note=36, velocity=0, time=0),\n","    Message('control_change', channel=4, control=91, value=126, time=2),\n","    Message('control_change', channel=4, control=91, value=126, time=0),\n","    Message('control_change', channel=4, control=91, value=125, time=4),\n","    Message('control_change', channel=4, control=91, value=125, time=0),\n","    Message('control_change', channel=4, control=91, value=127, time=2),\n","    Message('control_change', channel=4, control=91, value=127, time=0),\n","    Message('note_on', channel=1, note=37, velocity=0, time=97),\n","    Message('note_on', channel=9, note=46, velocity=100, time=1),\n","    Message('note_on', channel=1, note=32, velocity=100, time=0),\n","    Message('note_on', channel=9, note=46, velocity=0, time=14),\n","    Message('note_on', channel=1, note=32, velocity=0, time=45),\n","    Message('note_on', channel=9, note=59, velocity=100, time=1),\n","    Message('note_on', channel=1, note=25, velocity=100, time=0),\n","    Message('note_on', channel=2, note=66, velocity=100, time=0),\n","    Message('note_on', channel=2, note=59, velocity=100, time=0),\n","    Message('note_on', channel=2, note=61, velocity=100, time=0),\n","    Message('note_on', channel=3, note=66, velocity=100, time=0),\n","    Message('note_on', channel=3, note=59, velocity=100, time=0),\n","    Message('note_on', channel=3, note=61, velocity=100, time=0),\n","    Message('note_on', channel=9, note=59, velocity=0, time=14),\n","    Message('control_change', channel=4, control=93, value=127, time=46),\n","    Message('control_change', channel=4, control=93, value=127, time=0),\n","    Message('note_on', channel=3, note=61, velocity=0, time=59),\n","    Message('note_on', channel=3, note=66, velocity=0, time=0),\n","    Message('note_on', channel=2, note=66, velocity=0, time=0),\n","    Message('note_on', channel=2, note=59, velocity=0, time=0),\n","    Message('note_on', channel=3, note=59, velocity=0, time=0),\n","    Message('note_on', channel=2, note=61, velocity=0, time=0),\n","    Message('note_on', channel=9, note=40, velocity=100, time=1),\n","    Message('note_on', channel=9, note=59, velocity=100, time=0),\n","    Message('note_on', channel=2, note=63, velocity=100, time=0),\n","    Message('note_on', channel=2, note=68, velocity=100, time=0),\n","    Message('note_on', channel=2, note=61, velocity=100, time=0),\n","    Message('note_on', channel=3, note=63, velocity=100, time=0),\n","    Message('note_on', channel=3, note=68, velocity=100, time=0),\n","    Message('note_on', channel=3, note=61, velocity=100, time=0),\n","    Message('note_on', channel=9, note=59, velocity=0, time=14),\n","    Message('note_on', channel=9, note=40, velocity=0, time=0),\n","    Message('note_on', channel=9, note=44, velocity=100, time=46),\n","    Message('note_on', channel=9, note=44, velocity=0, time=14),\n","    Message('note_on', channel=1, note=25, velocity=0, time=45),\n","    Message('note_on', channel=9, note=51, velocity=100, time=1),\n","    Message('note_on', channel=1, note=37, velocity=100, time=0),\n","    Message('note_on', channel=9, note=51, velocity=0, time=14),\n","    Message('note_on', channel=2, note=37, velocity=0, time=45),\n","    Message('note_on', channel=3, note=37, velocity=0, time=0),\n","    Message('note_on', channel=9, note=51, velocity=100, time=1),\n","    Message('note_on', channel=9, note=51, velocity=0, time=14),\n","    Message('note_on', channel=9, note=40, velocity=100, time=46),\n","    Message('note_on', channel=9, note=40, velocity=0, time=14),\n","    Message('note_on', channel=9, note=59, velocity=100, time=46),\n","    Message('note_on', channel=9, note=59, velocity=0, time=14),\n","    Message('note_on', channel=2, note=61, velocity=0, time=45),\n","    Message('note_on', channel=2, note=68, velocity=0, time=0),\n","    Message('note_on', channel=2, note=63, velocity=0, time=0),\n","    Message('note_on', channel=1, note=37, velocity=0, time=0),\n","    Message('note_on', channel=3, note=63, velocity=0, time=0),\n","    Message('note_on', channel=3, note=68, velocity=0, time=0),\n","    Message('note_on', channel=3, note=61, velocity=0, time=0),\n","    Message('note_on', channel=9, note=36, velocity=64, time=1),\n","    Message('note_on', channel=1, note=37, velocity=100, time=0),\n","    Message('note_on', channel=2, note=57, velocity=100, time=0),\n","    Message('note_on', channel=2, note=64, velocity=100, time=0),\n","    Message('note_on', channel=2, note=59, velocity=100, time=0),\n","    Message('note_on', channel=3, note=57, velocity=100, time=0),\n","    Message('note_on', channel=3, note=64, velocity=100, time=0),\n","    Message('note_on', channel=3, note=59, velocity=100, time=0),\n","    Message('note_on', channel=9, note=36, velocity=0, time=14),\n","    Message('note_on', channel=1, note=37, velocity=0, time=45),\n","    Message('note_on', channel=9, note=36, velocity=100, time=1),\n","    Message('note_on', channel=9, note=51, velocity=100, time=0),\n","    Message('note_on', channel=1, note=37, velocity=100, time=0),\n","    Message('note_on', channel=9, note=51, velocity=0, time=14),\n","    Message('note_on', channel=9, note=36, velocity=0, time=0),\n","    Message('note_on', channel=2, note=64, velocity=0, time=45),\n","    Message('note_on', channel=3, note=64, velocity=0, time=0),\n","    Message('note_on', channel=2, note=57, velocity=0, time=0),\n","    Message('note_on', channel=2, note=59, velocity=0, time=0),\n","    Message('note_on', channel=3, note=59, velocity=0, time=0),\n","    Message('note_on', channel=3, note=57, velocity=0, time=0),\n","    Message('note_on', channel=2, note=61, velocity=100, time=1),\n","    Message('note_on', channel=2, note=59, velocity=100, time=0),\n","    Message('note_on', channel=2, note=66, velocity=100, time=0),\n","    Message('note_on', channel=3, note=61, velocity=100, time=0),\n","    Message('note_on', channel=3, note=59, velocity=100, time=0),\n","    Message('note_on', channel=3, note=66, velocity=100, time=0),\n","    Message('note_on', channel=9, note=44, velocity=100, time=60),\n","    Message('note_on', channel=9, note=44, velocity=0, time=14),\n","    Message('note_on', channel=1, note=37, velocity=0, time=45),\n","    Message('note_on', channel=9, note=59, velocity=60, time=1),\n","    Message('note_on', channel=1, note=37, velocity=100, time=0),\n","    Message('note_on', channel=9, note=59, velocity=0, time=14),\n","    Message('note_on', channel=1, note=37, velocity=0, time=45),\n","    Message('note_on', channel=9, note=59, velocity=100, time=1),\n","    Message('note_on', channel=1, note=37, velocity=100, time=0),\n","    Message('note_on', channel=9, note=59, velocity=0, time=14),\n","    Message('note_on', channel=9, note=42, velocity=60, time=46),\n","    Message('note_on', channel=4, note=85, velocity=100, time=0),\n","    Message('note_on', channel=4, note=83, velocity=100, time=0),\n","    Message('note_on', channel=4, note=90, velocity=100, time=0),\n","    Message('note_on', channel=4, note=73, velocity=100, time=0),\n","    Message('note_on', channel=4, note=71, velocity=100, time=0),\n","    Message('note_on', channel=4, note=78, velocity=100, time=0),\n","    Message('note_on', channel=9, note=42, velocity=0, time=14),\n","    Message('note_on', channel=9, note=40, velocity=100, time=46),\n","    Message('note_on', channel=9, note=46, velocity=100, time=0),\n","    Message('note_on', channel=9, note=46, velocity=0, time=14),\n","    Message('note_on', channel=9, note=40, velocity=0, time=0),\n","    Message('note_on', channel=9, note=51, velocity=54, time=46),\n","    Message('note_on', channel=9, note=51, velocity=0, time=14),\n","    Message('note_on', channel=9, note=51, velocity=100, time=46),\n","    Message('note_on', channel=9, note=51, velocity=0, time=14),\n","    Message('note_on', channel=3, note=66, velocity=0, time=45),\n","    Message('note_on', channel=1, note=37, velocity=0, time=0),\n","    Message('note_on', channel=3, note=61, velocity=0, time=0),\n","    Message('note_on', channel=2, note=66, velocity=0, time=0),\n","    Message('note_on', channel=2, note=61, velocity=0, time=0),\n","    Message('note_on', channel=2, note=59, velocity=0, time=0),\n","    Message('note_on', channel=3, note=59, velocity=0, time=0),\n","    Message('note_on', channel=9, note=36, velocity=64, time=1),\n","    Message('note_on', channel=9, note=51, velocity=49, time=0),\n","    Message('note_on', channel=1, note=25, velocity=100, time=0),\n","    Message('note_on', channel=2, note=57, velocity=100, time=0),\n","    Message('note_on', channel=2, note=59, velocity=100, time=0),\n","    Message('note_on', channel=2, note=64, velocity=100, time=0),\n","    Message('note_on', channel=3, note=57, velocity=100, time=0),\n","    Message('note_on', channel=3, note=59, velocity=100, time=0),\n","    Message('note_on', channel=3, note=64, velocity=100, time=0),\n","    Message('note_on', channel=9, note=51, velocity=0, time=14),\n","    Message('note_on', channel=9, note=36, velocity=0, time=0),\n","    Message('note_on', channel=4, note=90, velocity=0, time=45),\n","    Message('note_on', channel=4, note=71, velocity=0, time=0),\n","    Message('note_on', channel=4, note=73, velocity=0, time=0),\n","    Message('note_on', channel=4, note=85, velocity=0, time=0),\n","    Message('note_on', channel=4, note=83, velocity=0, time=0),\n","    Message('note_on', channel=4, note=78, velocity=0, time=0),\n","    Message('note_on', channel=9, note=51, velocity=100, time=1),\n","    Message('note_on', channel=9, note=51, velocity=0, time=14),\n","    Message('note_on', channel=3, note=59, velocity=0, time=45),\n","    Message('note_on', channel=2, note=57, velocity=0, time=0),\n","    Message('note_on', channel=3, note=64, velocity=0, time=0),\n","    Message('note_on', channel=3, note=57, velocity=0, time=0),\n","    Message('note_on', channel=2, note=64, velocity=0, time=0),\n","    Message('note_on', channel=2, note=59, velocity=0, time=0),\n","    Message('note_on', channel=9, note=51, velocity=47, time=1),\n","    Message('note_on', channel=2, note=59, velocity=100, time=0),\n","    Message('note_on', channel=2, note=61, velocity=100, time=0),\n","    Message('note_on', channel=2, note=66, velocity=100, time=0),\n","    Message('note_on', channel=3, note=59, velocity=100, time=0),\n","    Message('note_on', channel=3, note=61, velocity=100, time=0),\n","    Message('note_on', channel=3, note=66, velocity=100, time=0),\n","    Message('note_on', channel=9, note=51, velocity=0, time=14),\n","    Message('note_on', channel=3, note=66, velocity=0, time=15),\n","    Message('note_on', channel=3, note=59, velocity=0, time=0),\n","    Message('note_on', channel=2, note=59, velocity=0, time=0),\n","    Message('note_on', channel=2, note=61, velocity=0, time=0),\n","    Message('note_on', channel=2, note=66, velocity=0, time=0),\n","    Message('note_on', channel=3, note=61, velocity=0, time=0),\n","    Message('note_on', channel=9, note=51, velocity=99, time=31),\n","    Message('note_on', channel=2, note=61, velocity=100, time=0),\n","    Message('note_on', channel=2, note=63, velocity=100, time=0),\n","    Message('note_on', channel=2, note=68, velocity=100, time=0),\n","    Message('note_on', channel=3, note=61, velocity=100, time=0),\n","    Message('note_on', channel=3, note=63, velocity=100, time=0),\n","    Message('note_on', channel=3, note=68, velocity=100, time=0),\n","    Message('note_on', channel=9, note=51, velocity=0, time=14),\n","    Message('note_on', channel=1, note=25, velocity=0, time=45),\n","    Message('note_on', channel=9, note=36, velocity=64, time=1),\n","    Message('note_on', channel=1, note=37, velocity=100, time=0),\n","    Message('note_on', channel=9, note=36, velocity=0, time=14),\n","    Message('note_on', channel=9, note=44, velocity=80, time=46),\n","    Message('note_on', channel=9, note=44, velocity=0, time=14),\n","    Message('note_on', channel=2, note=63, velocity=0, time=45),\n","    Message('note_on', channel=3, note=63, velocity=0, time=0),\n","    Message('note_on', channel=2, note=61, velocity=0, time=0),\n","    Message('note_on', channel=2, note=68, velocity=0, time=0),\n","    Message('note_on', channel=3, note=68, velocity=0, time=0),\n","    Message('note_on', channel=3, note=61, velocity=0, time=0),\n","    Message('note_on', channel=9, note=59, velocity=59, time=1),\n","    Message('note_on', channel=2, note=57, velocity=100, time=0),\n","    Message('note_on', channel=2, note=59, velocity=100, time=0),\n","    Message('note_on', channel=2, note=64, velocity=100, time=0),\n","    Message('note_on', channel=3, note=57, velocity=100, time=0),\n","    Message('note_on', channel=3, note=59, velocity=100, time=0),\n","    Message('note_on', channel=3, note=64, velocity=100, time=0),\n","    Message('note_on', channel=9, note=59, velocity=0, time=14),\n","    Message('note_on', channel=9, note=59, velocity=99, time=46),\n","    Message('note_on', channel=9, note=59, velocity=0, time=14),\n","    Message('note_on', channel=1, note=37, velocity=0, time=45),\n","    Message('note_on', channel=9, note=36, velocity=64, time=1),\n","    Message('note_on', channel=1, note=37, velocity=100, time=0),\n","    Message('note_on', channel=9, note=36, velocity=0, time=14),\n","    Message('note_on', channel=9, note=59, velocity=99, time=46),\n","    Message('note_on', channel=9, note=59, velocity=0, time=14),\n","    Message('note_on', channel=3, note=64, velocity=0, time=45),\n","    Message('note_on', channel=3, note=59, velocity=0, time=0),\n","    Message('note_on', channel=2, note=57, velocity=0, time=0),\n","    Message('note_on', channel=2, note=64, velocity=0, time=0),\n","    Message('note_on', channel=1, note=37, velocity=0, time=0),\n","    Message('note_on', channel=3, note=57, velocity=0, time=0),\n","    Message('note_on', channel=2, note=59, velocity=0, time=0),\n","    Message('note_on', channel=9, note=51, velocity=47, time=1),\n","    Message('note_on', channel=1, note=31, velocity=100, time=0),\n","    Message('note_on', channel=2, note=57, velocity=100, time=0),\n","    Message('note_on', channel=2, note=59, velocity=100, time=0),\n","    Message('note_on', channel=2, note=64, velocity=100, time=0),\n","    Message('note_on', channel=3, note=57, velocity=100, time=0),\n","    Message('note_on', channel=3, note=59, velocity=100, time=0),\n","    Message('note_on', channel=3, note=64, velocity=100, time=0),\n","    Message('note_on', channel=9, note=51, velocity=0, time=14),\n","    Message('note_on', channel=9, note=59, velocity=99, time=46),\n","    Message('note_on', channel=9, note=59, velocity=0, time=14),\n","    Message('note_on', channel=9, note=46, velocity=80, time=46),\n","    Message('note_on', channel=9, note=40, velocity=80, time=0),\n","    Message('note_on', channel=9, note=40, velocity=0, time=14),\n","    Message('note_on', channel=9, note=46, velocity=0, time=0),\n","    Message('note_on', channel=9, note=59, velocity=89, time=46),\n","    Message('note_on', channel=9, note=59, velocity=0, time=14),\n","    Message('note_on', channel=2, note=64, velocity=0, time=45),\n","    Message('note_on', channel=3, note=57, velocity=0, time=0),\n","    Message('note_on', channel=2, note=57, velocity=0, time=0),\n","    Message('note_on', channel=2, note=59, velocity=0, time=0),\n","    Message('note_on', channel=1, note=31, velocity=0, time=0),\n","    Message('note_on', channel=3, note=59, velocity=0, time=0),\n","    Message('note_on', channel=3, note=64, velocity=0, time=0),\n","    Message('note_on', channel=9, note=40, velocity=50, time=1),\n","    Message('note_on', channel=9, note=51, velocity=43, time=0),\n","    Message('note_on', channel=1, note=25, velocity=100, time=0),\n","    Message('note_on', channel=2, note=56, velocity=100, time=0),\n","    Message('note_on', channel=2, note=61, velocity=100, time=0),\n","    Message('note_on', channel=2, note=63, velocity=100, time=0),\n","    Message('note_on', channel=3, note=56, velocity=100, time=0),\n","    Message('note_on', channel=3, note=61, velocity=100, time=0),\n","    Message('note_on', channel=3, note=63, velocity=100, time=0),\n","    Message('note_on', channel=9, note=51, velocity=0, time=14),\n","    Message('note_on', channel=9, note=40, velocity=0, time=0),\n","    Message('note_on', channel=9, note=59, velocity=89, time=46),\n","    Message('note_on', channel=9, note=59, velocity=0, time=14),\n","    Message('note_on', channel=3, note=63, velocity=0, time=45),\n","    Message('note_on', channel=2, note=63, velocity=0, time=0),\n","    Message('note_on', channel=2, note=56, velocity=0, time=0),\n","    Message('note_on', channel=2, note=61, velocity=0, time=0),\n","    Message('note_on', channel=3, note=61, velocity=0, time=0),\n","    Message('note_on', channel=3, note=56, velocity=0, time=0),\n","    Message('note_on', channel=2, note=57, velocity=100, time=1),\n","    Message('note_on', channel=2, note=59, velocity=100, time=0),\n","    Message('note_on', channel=2, note=64, velocity=100, time=0),\n","    Message('note_on', channel=3, note=57, velocity=100, time=0),\n","    Message('note_on', channel=3, note=59, velocity=100, time=0),\n","    Message('note_on', channel=3, note=64, velocity=100, time=0),\n","    Message('note_on', channel=9, note=44, velocity=89, time=60),\n","    Message('note_on', channel=9, note=44, velocity=0, time=14),\n","    Message('note_on', channel=3, note=64, velocity=0, time=45),\n","    Message('note_on', channel=3, note=57, velocity=0, time=0),\n","    Message('note_on', channel=2, note=57, velocity=0, time=0),\n","    Message('note_on', channel=2, note=59, velocity=0, time=0),\n","    Message('note_on', channel=2, note=64, velocity=0, time=0),\n","    Message('note_on', channel=3, note=59, velocity=0, time=0),\n","    Message('note_on', channel=9, note=51, velocity=44, time=1),\n","    Message('note_on', channel=2, note=59, velocity=100, time=0),\n","    Message('note_on', channel=2, note=61, velocity=100, time=0),\n","    Message('note_on', channel=2, note=66, velocity=100, time=0),\n","    Message('note_on', channel=3, note=59, velocity=100, time=0),\n","    Message('note_on', channel=3, note=61, velocity=100, time=0),\n","    Message('note_on', channel=3, note=66, velocity=100, time=0),\n","    Message('note_on', channel=9, note=51, velocity=0, time=14),\n","    Message('note_on', channel=9, note=51, velocity=99, time=46),\n","    Message('note_on', channel=9, note=51, velocity=0, time=14),\n","    Message('note_on', channel=3, note=66, velocity=0, time=45),\n","    Message('note_on', channel=3, note=59, velocity=0, time=0),\n","    Message('note_on', channel=2, note=59, velocity=0, time=0),\n","    Message('note_on', channel=2, note=61, velocity=0, time=0),\n","    Message('note_on', channel=2, note=66, velocity=0, time=0),\n","    Message('note_on', channel=3, note=61, velocity=0, time=0),\n","    Message('note_on', channel=9, note=36, velocity=80, time=1),\n","    Message('note_on', channel=2, note=63, velocity=100, time=0),\n","    Message('note_on', channel=2, note=61, velocity=100, time=0),\n","    Message('note_on', channel=2, note=68, velocity=100, time=0),\n","    Message('note_on', channel=3, note=63, velocity=100, time=0),\n","    Message('note_on', channel=3, note=61, velocity=100, time=0),\n","    Message('note_on', channel=3, note=68, velocity=100, time=0),\n","    Message('note_on', channel=9, note=36, velocity=0, time=14),\n","    Message('note_on', channel=1, note=25, velocity=0, time=45),\n","    Message('note_on', channel=9, note=40, velocity=60, time=1),\n","    Message('note_on', channel=9, note=44, velocity=80, time=0),\n","    Message('note_on', channel=1, note=37, velocity=100, time=0),\n","    Message('note_on', channel=9, note=44, velocity=0, time=14),\n","    Message('note_on', channel=9, note=40, velocity=0, time=0),\n","    Message('note_on', channel=2, note=61, velocity=0, time=45),\n","    Message('note_on', channel=3, note=61, velocity=0, time=0),\n","    Message('note_on', channel=2, note=63, velocity=0, time=0),\n","    Message('note_on', channel=2, note=68, velocity=0, time=0),\n","    Message('note_on', channel=3, note=68, velocity=0, time=0),\n","    Message('note_on', channel=3, note=63, velocity=0, time=0),\n","    Message('note_on', channel=9, note=36, velocity=80, time=1),\n","    Message('note_on', channel=9, note=59, velocity=59, time=0),\n","    Message('note_on', channel=2, note=57, velocity=100, time=0),\n","    Message('note_on', channel=2, note=59, velocity=100, time=0),\n","    Message('note_on', channel=2, note=64, velocity=100, time=0),\n","    Message('note_on', channel=3, note=57, velocity=100, time=0),\n","    Message('note_on', channel=3, note=59, velocity=100, time=0),\n","    Message('note_on', channel=3, note=64, velocity=100, time=0),\n","    Message('note_on', channel=9, note=59, velocity=0, time=14),\n","    Message('note_on', channel=9, note=36, velocity=0, time=0),\n","    Message('note_on', channel=1, note=37, velocity=0, time=45),\n","    Message('note_on', channel=9, note=40, velocity=70, time=1),\n","    Message('note_on', channel=9, note=59, velocity=99, time=0),\n","    Message('note_on', channel=1, note=37, velocity=100, time=0),\n","    Message('note_on', channel=9, note=59, velocity=0, time=14),\n","    Message('note_on', channel=9, note=40, velocity=0, time=0),\n","    Message('note_on', channel=2, note=57, velocity=0, time=45),\n","    Message('note_on', channel=3, note=59, velocity=0, time=0),\n","    Message('note_on', channel=2, note=64, velocity=0, time=0),\n","    Message('note_on', channel=2, note=59, velocity=0, time=0),\n","    Message('note_on', channel=3, note=64, velocity=0, time=0),\n","    Message('note_on', channel=3, note=57, velocity=0, time=0),\n","    Message('note_on', channel=9, note=36, velocity=80, time=1),\n","    Message('note_on', channel=2, note=59, velocity=100, time=0),\n","    Message('note_on', channel=2, note=61, velocity=100, time=0),\n","    Message('note_on', channel=2, note=66, velocity=100, time=0),\n","    Message('note_on', channel=3, note=59, velocity=100, time=0),\n","    Message('note_on', channel=3, note=61, velocity=100, time=0),\n","    Message('note_on', channel=3, note=66, velocity=100, time=0),\n","    Message('note_on', channel=9, note=36, velocity=0, time=14),\n","    Message('note_on', channel=1, note=37, velocity=0, time=45),\n","    Message('note_on', channel=9, note=40, velocity=80, time=1),\n","    Message('note_on', channel=9, note=59, velocity=99, time=0),\n","    Message('note_on', channel=1, note=37, velocity=100, time=0),\n","    Message('note_on', channel=9, note=59, velocity=0, time=14),\n","    Message('note_on', channel=9, note=40, velocity=0, time=0),\n","    Message('note_on', channel=9, note=36, velocity=60, time=46),\n","    Message('note_on', channel=9, note=51, velocity=47, time=0),\n","    Message('note_on', channel=9, note=51, velocity=0, time=14),\n","    Message('note_on', channel=9, note=36, velocity=0, time=0),\n","    Message('note_on', channel=1, note=37, velocity=0, time=45),\n","    Message('note_on', channel=3, note=61, velocity=0, time=0),\n","    Message('note_on', channel=2, note=59, velocity=0, time=0),\n","    Message('note_on', channel=2, note=66, velocity=0, time=0),\n","    Message('note_on', channel=3, note=66, velocity=0, time=0),\n","    Message('note_on', channel=3, note=59, velocity=0, time=0),\n","    Message('note_on', channel=2, note=61, velocity=0, time=0),\n","    Message('note_on', channel=9, note=36, velocity=80, time=1),\n","    Message('note_on', channel=9, note=59, velocity=99, time=0),\n","    Message('note_on', channel=1, note=25, velocity=100, time=0),\n","    Message('note_on', channel=2, note=57, velocity=100, time=4),\n","    Message('note_on', channel=2, note=59, velocity=100, time=0),\n","    Message('note_on', channel=2, note=64, velocity=100, time=0),\n","    Message('note_on', channel=3, note=57, velocity=100, time=0),\n","    Message('note_on', channel=3, note=59, velocity=100, time=0),\n","    Message('note_on', channel=3, note=64, velocity=100, time=0),\n","    Message('note_on', channel=9, note=59, velocity=0, time=10),\n","    Message('note_on', channel=9, note=36, velocity=0, time=0),\n","    Message('note_on', channel=9, note=59, velocity=89, time=106),\n","    Message('note_on', channel=9, note=59, velocity=0, time=14),\n","    Message('note_on', channel=1, note=25, velocity=0, time=45),\n","    Message('note_on', channel=9, note=40, velocity=80, time=1),\n","    Message('note_on', channel=9, note=51, velocity=43, time=0),\n","    Message('note_on', channel=1, note=33, velocity=100, time=0),\n","    Message('note_on', channel=2, note=59, velocity=100, time=0),\n","    Message('note_on', channel=2, note=61, velocity=100, time=0),\n","    Message('note_on', channel=2, note=66, velocity=100, time=0),\n","    Message('note_on', channel=3, note=59, velocity=100, time=0),\n","    Message('note_on', channel=3, note=61, velocity=100, time=0),\n","    Message('note_on', channel=3, note=66, velocity=100, time=0),\n","    Message('note_on', channel=3, note=57, velocity=0, time=3),\n","    Message('note_on', channel=3, note=64, velocity=0, time=0),\n","    Message('note_on', channel=3, note=59, velocity=0, time=0),\n","    Message('note_on', channel=2, note=59, velocity=0, time=0),\n","    Message('note_on', channel=2, note=57, velocity=0, time=0),\n","    Message('note_on', channel=2, note=64, velocity=0, time=0),\n","    Message('note_on', channel=9, note=51, velocity=0, time=11),\n","    Message('note_on', channel=9, note=40, velocity=0, time=0),\n","    Message('note_on', channel=9, note=59, velocity=89, time=46),\n","    Message('note_on', channel=9, note=59, velocity=0, time=14),\n","    Message('note_on', channel=9, note=44, velocity=89, time=106),\n","    Message('note_on', channel=9, note=44, velocity=0, time=14),\n","    Message('note_on', channel=2, note=59, velocity=0, time=45),\n","    Message('note_on', channel=2, note=61, velocity=0, time=0),\n","    Message('note_on', channel=2, note=66, velocity=0, time=0),\n","    Message('note_on', channel=3, note=61, velocity=0, time=0),\n","    Message('note_on', channel=3, note=66, velocity=0, time=0),\n","    Message('note_on', channel=1, note=33, velocity=0, time=0),\n","    Message('note_on', channel=3, note=59, velocity=0, time=0),\n","    Message('note_on', channel=9, note=36, velocity=80, time=1),\n","    Message('note_on', channel=9, note=51, velocity=44, time=0),\n","    Message('note_on', channel=1, note=35, velocity=100, time=0),\n","    Message('note_on', channel=2, note=61, velocity=100, time=0),\n","    Message('note_on', channel=2, note=63, velocity=100, time=0),\n","    Message('note_on', channel=2, note=68, velocity=100, time=0),\n","    Message('note_on', channel=3, note=61, velocity=100, time=0),\n","    Message('note_on', channel=3, note=63, velocity=100, time=0),\n","    Message('note_on', channel=3, note=68, velocity=100, time=0),\n","    Message('note_on', channel=9, note=51, velocity=0, time=14),\n","    Message('note_on', channel=9, note=36, velocity=0, time=0),\n","    Message('note_on', channel=9, note=51, velocity=99, time=46),\n","    Message('note_on', channel=9, note=51, velocity=0, time=14),\n","    Message('note_on', channel=9, note=44, velocity=80, time=106),\n","    Message('note_on', channel=9, note=44, velocity=0, time=14),\n","    Message('note_on', channel=3, note=63, velocity=0, time=45),\n","    Message('note_on', channel=2, note=68, velocity=0, time=0),\n","    Message('note_on', channel=1, note=35, velocity=0, time=0),\n","    Message('note_on', channel=2, note=63, velocity=0, time=0),\n","    Message('note_on', channel=2, note=61, velocity=0, time=0),\n","    Message('note_on', channel=3, note=61, velocity=0, time=0),\n","    Message('note_on', channel=3, note=68, velocity=0, time=0),\n","    Message('note_on', channel=9, note=40, velocity=80, time=1),\n","    Message('note_on', channel=9, note=59, velocity=59, time=0),\n","    Message('note_on', channel=1, note=25, velocity=100, time=0),\n","    Message('note_on', channel=2, note=59, velocity=100, time=0),\n","    Message('note_on', channel=2, note=57, velocity=100, time=0),\n","    Message('note_on', channel=2, note=64, velocity=100, time=0),\n","    Message('note_on', channel=3, note=59, velocity=100, time=0),\n","    Message('note_on', channel=3, note=57, velocity=100, time=0),\n","    Message('note_on', channel=3, note=64, velocity=100, time=0),\n","    Message('note_on', channel=9, note=59, velocity=0, time=14),\n","    Message('note_on', channel=9, note=40, velocity=0, time=0),\n","    Message('note_on', channel=9, note=59, velocity=99, time=46),\n","    Message('note_on', channel=9, note=59, velocity=0, time=14),\n","    Message('note_on', channel=9, note=59, velocity=99, time=106),\n","    Message('note_on', channel=9, note=59, velocity=0, time=14),\n","    Message('note_on', channel=9, note=49, velocity=70, time=46),\n","    Message('note_on', channel=9, note=51, velocity=47, time=0),\n","    Message('note_on', channel=4, note=83, velocity=100, time=0),\n","    Message('note_on', channel=4, note=81, velocity=100, time=0),\n","    Message('note_on', channel=4, note=88, velocity=100, time=0),\n","    Message('note_on', channel=4, note=71, velocity=100, time=0),\n","    Message('note_on', channel=4, note=69, velocity=100, time=0),\n","    Message('note_on', channel=4, note=76, velocity=100, time=0),\n","    Message('note_on', channel=9, note=51, velocity=0, time=14),\n","    Message('note_on', channel=9, note=49, velocity=0, time=0),\n","    Message('note_on', channel=1, note=25, velocity=0, time=45),\n","    Message('note_on', channel=9, note=59, velocity=99, time=1),\n","    Message('note_on', channel=1, note=31, velocity=100, time=0),\n","    Message('note_on', channel=9, note=59, velocity=0, time=14),\n","    Message('note_on', channel=9, note=59, velocity=89, time=106),\n","    Message('note_on', channel=9, note=59, velocity=0, time=14),\n","    Message('note_on', channel=3, note=64, velocity=0, time=45),\n","    Message('note_on', channel=2, note=64, velocity=0, time=0),\n","    Message('note_on', channel=3, note=57, velocity=0, time=0),\n","    Message('note_on', channel=2, note=57, velocity=0, time=0),\n","    Message('note_on', channel=3, note=59, velocity=0, time=0),\n","    Message('note_on', channel=2, note=59, velocity=0, time=0),\n","    Message('note_on', channel=1, note=31, velocity=0, time=0),\n","    Message('note_on', channel=9, note=40, velocity=80, time=1),\n","    Message('note_on', channel=9, note=51, velocity=43, time=0),\n","    Message('note_on', channel=1, note=25, velocity=100, time=0),\n","    Message('note_on', channel=2, note=56, velocity=100, time=0),\n","    Message('note_on', channel=2, note=61, velocity=100, time=0),\n","    Message('note_on', channel=2, note=63, velocity=100, time=0),\n","    Message('note_on', channel=3, note=56, velocity=100, time=0),\n","    Message('note_on', channel=3, note=61, velocity=100, time=0),\n","    Message('note_on', channel=3, note=63, velocity=100, time=0),\n","    Message('note_on', channel=9, note=51, velocity=0, time=14),\n","    Message('note_on', channel=9, note=40, velocity=0, time=0),\n","    Message('note_on', channel=4, note=81, velocity=0, time=45),\n","    Message('note_on', channel=4, note=71, velocity=0, time=0),\n","    Message('note_on', channel=4, note=88, velocity=0, time=0),\n","    Message('note_on', channel=4, note=69, velocity=0, time=0),\n","    Message('note_on', channel=4, note=83, velocity=0, time=0),\n","    Message('note_on', channel=4, note=76, velocity=0, time=0),\n","    Message('note_on', channel=9, note=59, velocity=89, time=1),\n","    Message('note_on', channel=9, note=59, velocity=0, time=14),\n","    Message('note_on', channel=3, note=61, velocity=0, time=45),\n","    Message('note_on', channel=2, note=56, velocity=0, time=0),\n","    Message('note_on', channel=3, note=63, velocity=0, time=0),\n","    Message('note_on', channel=3, note=56, velocity=0, time=0),\n","    Message('note_on', channel=2, note=63, velocity=0, time=0),\n","    Message('note_on', channel=2, note=61, velocity=0, time=0),\n","    Message('note_on', channel=2, note=57, velocity=100, time=1),\n","    Message('note_on', channel=2, note=59, velocity=100, time=0),\n","    Message('note_on', channel=2, note=64, velocity=100, time=0),\n","    Message('note_on', channel=3, note=57, velocity=100, time=0),\n","    Message('note_on', channel=3, note=59, velocity=100, time=0),\n","    Message('note_on', channel=3, note=64, velocity=100, time=0),\n","    Message('note_on', channel=9, note=44, velocity=89, time=60),\n","    Message('note_on', channel=9, note=44, velocity=0, time=14),\n","    Message('note_on', channel=3, note=64, velocity=0, time=45),\n","    Message('note_on', channel=3, note=57, velocity=0, time=0),\n","    Message('note_on', channel=2, note=57, velocity=0, time=0),\n","    Message('note_on', channel=2, note=59, velocity=0, time=0),\n","    Message('note_on', channel=2, note=64, velocity=0, time=0),\n","    Message('note_on', channel=3, note=59, velocity=0, time=0),\n","    Message('note_on', channel=9, note=36, velocity=80, time=1),\n","    Message('note_on', channel=9, note=51, velocity=44, time=0),\n","    Message('note_on', channel=2, note=59, velocity=100, time=0),\n","    Message('note_on', channel=2, note=61, velocity=100, time=0),\n","    Message('note_on', channel=2, note=66, velocity=100, time=0),\n","    Message('note_on', channel=3, note=59, velocity=100, time=0),\n","    Message('note_on', channel=3, note=61, velocity=100, time=0),\n","    Message('note_on', channel=3, note=66, velocity=100, time=0),\n","    Message('note_on', channel=9, note=51, velocity=0, time=14),\n","    Message('note_on', channel=9, note=36, velocity=0, time=0),\n","    Message('note_on', channel=9, note=36, velocity=80, time=46),\n","    Message('note_on', channel=9, note=51, velocity=99, time=0),\n","    Message('note_on', channel=9, note=51, velocity=0, time=14),\n","    Message('note_on', channel=9, note=36, velocity=0, time=0),\n","    Message('note_on', channel=3, note=61, velocity=0, time=45),\n","    Message('note_on', channel=3, note=59, velocity=0, time=0),\n","    Message('note_on', channel=2, note=66, velocity=0, time=0),\n","    Message('note_on', channel=2, note=59, velocity=0, time=0),\n","    Message('note_on', channel=3, note=66, velocity=0, time=0),\n","    Message('note_on', channel=2, note=61, velocity=0, time=0),\n","    Message('note_on', channel=2, note=61, velocity=100, time=1),\n","    Message('note_on', channel=2, note=63, velocity=100, time=0),\n","    Message('note_on', channel=2, note=68, velocity=100, time=0),\n","    Message('note_on', channel=3, note=61, velocity=100, time=0),\n","    Message('note_on', channel=3, note=63, velocity=100, time=0),\n","    Message('note_on', channel=3, note=68, velocity=100, time=0),\n","    Message('note_on', channel=9, note=36, velocity=80, time=60),\n","    Message('note_on', channel=9, note=44, velocity=80, time=0),\n","    Message('note_on', channel=9, note=44, velocity=0, time=14),\n","    Message('note_on', channel=9, note=36, velocity=0, time=0),\n","    Message('note_on', channel=9, note=59, velocity=59, time=46),\n","    Message('note_on', channel=9, note=59, velocity=0, time=14),\n","    Message('note_on', channel=9, note=59, velocity=99, time=46),\n","    Message('note_on', channel=9, note=59, velocity=0, time=14),\n","    Message('note_on', channel=1, note=25, velocity=0, time=45),\n","    Message('note_on', channel=9, note=40, velocity=80, time=1),\n","    Message('note_on', channel=1, note=28, velocity=100, time=0),\n","    Message('note_on', channel=9, note=40, velocity=0, time=14),\n","    Message('note_on', channel=9, note=59, velocity=99, time=46),\n","    Message('note_on', channel=9, note=59, velocity=0, time=14),\n","    Message('note_on', channel=9, note=51, velocity=47, time=46),\n","    Message('note_on', channel=9, note=51, velocity=0, time=14),\n","    Message('note_on', channel=9, note=59, velocity=99, time=46),\n","    Message('note_on', channel=9, note=59, velocity=0, time=14),\n","    Message('note_on', channel=3, note=61, velocity=0, time=45),\n","    Message('note_on', channel=3, note=68, velocity=0, time=0),\n","    Message('note_on', channel=2, note=63, velocity=0, time=0),\n","    Message('note_on', channel=2, note=68, velocity=0, time=0),\n","    Message('note_on', channel=2, note=61, velocity=0, time=0),\n","    Message('note_on', channel=3, note=63, velocity=0, time=0),\n","    Message('note_on', channel=1, note=28, velocity=0, time=0),\n","    Message('note_on', channel=9, note=40, velocity=80, time=1),\n","    Message('note_on', channel=1, note=31, velocity=100, time=0),\n","    Message('note_on', channel=2, note=61, velocity=100, time=0),\n","    Message('note_on', channel=2, note=59, velocity=100, time=0),\n","    Message('note_on', channel=2, note=66, velocity=100, time=0),\n","    Message('note_on', channel=3, note=61, velocity=100, time=0),\n","    Message('note_on', channel=3, note=59, velocity=100, time=0),\n","    Message('note_on', channel=3, note=66, velocity=100, time=0),\n","    Message('note_on', channel=9, note=40, velocity=0, time=14),\n","    Message('note_on', channel=9, note=59, velocity=89, time=46),\n","    Message('note_on', channel=9, note=59, velocity=0, time=14),\n","    Message('note_on', channel=9, note=51, velocity=43, time=46),\n","    Message('note_on', channel=9, note=51, velocity=0, time=14),\n","    Message('note_on', channel=9, note=59, velocity=89, time=46),\n","    Message('note_on', channel=9, note=59, velocity=0, time=14),\n","    Message('note_on', channel=9, note=36, velocity=80, time=46),\n","    Message('note_on', channel=4, note=85, velocity=100, time=0),\n","    Message('note_on', channel=4, note=83, velocity=100, time=0),\n","    Message('note_on', channel=4, note=90, velocity=100, time=0),\n","    Message('note_on', channel=4, note=73, velocity=100, time=0),\n","    Message('note_on', channel=4, note=71, velocity=100, time=0),\n","    Message('note_on', channel=4, note=78, velocity=100, time=0),\n","    Message('note_on', channel=9, note=36, velocity=0, time=14),\n","    Message('note_on', channel=9, note=36, velocity=80, time=46),\n","    Message('note_on', channel=9, note=44, velocity=89, time=0),\n","    Message('note_on', channel=9, note=44, velocity=0, time=14),\n","    Message('note_on', channel=9, note=36, velocity=0, time=0),\n","    Message('note_on', channel=9, note=51, velocity=44, time=46),\n","    Message('note_on', channel=9, note=51, velocity=0, time=14),\n","    Message('note_on', channel=9, note=36, velocity=80, time=46),\n","    Message('note_on', channel=9, note=51, velocity=99, time=0),\n","    Message('note_on', channel=9, note=51, velocity=0, time=14),\n","    Message('note_on', channel=9, note=36, velocity=0, time=0),\n","    Message('note_on', channel=4, note=78, velocity=0, time=105),\n","    Message('note_on', channel=3, note=59, velocity=0, time=0),\n","    Message('note_on', channel=2, note=61, velocity=0, time=0),\n","    Message('note_on', channel=4, note=85, velocity=0, time=0),\n","    Message('note_on', channel=2, note=59, velocity=0, time=0),\n","    Message('note_on', channel=3, note=66, velocity=0, time=0),\n","    Message('note_on', channel=2, note=66, velocity=0, time=0),\n","    Message('note_on', channel=3, note=61, velocity=0, time=0),\n","    Message('note_on', channel=4, note=73, velocity=0, time=0),\n","    Message('note_on', channel=4, note=83, velocity=0, time=0),\n","    Message('note_on', channel=1, note=31, velocity=0, time=0),\n","    Message('note_on', channel=4, note=71, velocity=0, time=0),\n","    Message('note_on', channel=4, note=90, velocity=0, time=0),\n","    Message('note_on', channel=9, note=36, velocity=80, time=1),\n","    Message('note_on', channel=9, note=44, velocity=80, time=0),\n","    Message('note_on', channel=1, note=36, velocity=100, time=0),\n","    Message('note_on', channel=2, note=64, velocity=100, time=0),\n","    Message('note_on', channel=2, note=66, velocity=100, time=0),\n","    Message('note_on', channel=2, note=71, velocity=100, time=0),\n","    Message('note_on', channel=3, note=64, velocity=100, time=0),\n","    Message('note_on', channel=3, note=66, velocity=100, time=0),\n","    Message('note_on', channel=3, note=71, velocity=100, time=0),\n","    Message('note_on', channel=9, note=44, velocity=0, time=14),\n","    Message('note_on', channel=9, note=36, velocity=0, time=0),\n","    Message('note_on', channel=9, note=59, velocity=59, time=46),\n","    Message('note_on', channel=9, note=59, velocity=0, time=14),\n","    Message('note_on', channel=9, note=59, velocity=99, time=46),\n","    Message('note_on', channel=9, note=59, velocity=0, time=14),\n","    Message('note_on', channel=9, note=40, velocity=90, time=46),\n","    Message('note_on', channel=9, note=40, velocity=0, time=14),\n","    Message('note_on', channel=9, note=59, velocity=99, time=46),\n","    Message('note_on', channel=4, note=88, velocity=100, time=0),\n","    Message('note_on', channel=4, note=90, velocity=100, time=0),\n","    Message('note_on', channel=4, note=95, velocity=100, time=0),\n","    Message('note_on', channel=4, note=76, velocity=100, time=0),\n","    Message('note_on', channel=4, note=78, velocity=100, time=0),\n","    Message('note_on', channel=4, note=83, velocity=100, time=0),\n","    Message('note_on', channel=9, note=59, velocity=0, time=14),\n","    Message('note_on', channel=9, note=51, velocity=47, time=46),\n","    Message('note_on', channel=9, note=51, velocity=0, time=14),\n","    Message('note_on', channel=9, note=59, velocity=99, time=46),\n","    Message('note_on', channel=9, note=59, velocity=0, time=14),\n","    Message('note_on', channel=9, note=59, velocity=89, time=106),\n","    Message('note_on', channel=9, note=59, velocity=0, time=14),\n","    Message('note_on', channel=9, note=51, velocity=43, time=46),\n","    Message('note_on', channel=9, note=51, velocity=0, time=14),\n","    Message('note_on', channel=9, note=59, velocity=89, time=46),\n","    Message('note_on', channel=9, note=59, velocity=0, time=14),\n","    Message('note_on', channel=9, note=38, velocity=50, time=26),\n","    Message('note_on', channel=9, note=38, velocity=0, time=14),\n","    Message('note_on', channel=9, note=48, velocity=121, time=26),\n","    Message('note_on', channel=9, note=48, velocity=0, time=14),\n","    Message('note_on', channel=9, note=48, velocity=121, time=26),\n","    Message('note_on', channel=9, note=44, velocity=89, time=0),\n","    Message('note_on', channel=9, note=44, velocity=0, time=14),\n","    Message('note_on', channel=9, note=48, velocity=0, time=0),\n","    Message('note_on', channel=9, note=48, velocity=60, time=26),\n","    Message('note_on', channel=9, note=48, velocity=0, time=14),\n","    Message('note_on', channel=9, note=51, velocity=44, time=6),\n","    Message('note_on', channel=9, note=51, velocity=0, time=14),\n","    Message('note_on', channel=9, note=43, velocity=50, time=6),\n","    Message('note_on', channel=9, note=43, velocity=0, time=14),\n","    Message('note_on', channel=4, note=83, velocity=0, time=25),\n","    Message('note_on', channel=3, note=64, velocity=0, time=0),\n","    Message('note_on', channel=1, note=36, velocity=0, time=0),\n","    Message('note_on', channel=4, note=88, velocity=0, time=0),\n","    Message('note_on', channel=2, note=66, velocity=0, time=0),\n","    Message('note_on', channel=3, note=66, velocity=0, time=0),\n","    Message('note_on', channel=3, note=71, velocity=0, time=0),\n","    Message('note_on', channel=4, note=78, velocity=0, time=0),\n","    Message('note_on', channel=4, note=76, velocity=0, time=0),\n","    Message('note_on', channel=4, note=90, velocity=0, time=0),\n","    Message('note_on', channel=2, note=64, velocity=0, time=0),\n","    Message('note_on', channel=2, note=71, velocity=0, time=0),\n","    Message('note_on', channel=4, note=95, velocity=0, time=0),\n","    Message('note_on', channel=9, note=35, velocity=80, time=1),\n","    Message('note_on', channel=9, note=51, velocity=99, time=0),\n","    Message('note_on', channel=1, note=37, velocity=100, time=0),\n","    Message('note_on', channel=2, note=37, velocity=110, time=0),\n","    Message('note_on', channel=3, note=37, velocity=110, time=0),\n","    Message('note_on', channel=9, note=51, velocity=0, time=14),\n","    Message('note_on', channel=9, note=35, velocity=0, time=0),\n","    Message('note_on', channel=1, note=37, velocity=0, time=105),\n","    Message('note_on', channel=9, note=44, velocity=80, time=1),\n","    Message('note_on', channel=1, note=32, velocity=100, time=0),\n","    Message('note_on', channel=9, note=44, velocity=0, time=14),\n","    Message('note_on', channel=1, note=32, velocity=0, time=45),\n","    Message('note_on', channel=9, note=40, velocity=90, time=1),\n","    Message('note_on', channel=9, note=59, velocity=59, time=0),\n","    Message('note_on', channel=1, note=25, velocity=100, time=0),\n","    Message('note_on', channel=2, note=59, velocity=100, time=0),\n","    Message('note_on', channel=2, note=57, velocity=100, time=0),\n","    Message('note_on', channel=2, note=64, velocity=100, time=0),\n","    Message('note_on', channel=3, note=59, velocity=100, time=0),\n","    Message('note_on', channel=3, note=57, velocity=100, time=0),\n","    Message('note_on', channel=3, note=64, velocity=100, time=0),\n","    Message('note_on', channel=9, note=59, velocity=0, time=14),\n","    Message('note_on', channel=9, note=40, velocity=0, time=0),\n","    Message('note_on', channel=9, note=59, velocity=99, time=46),\n","    Message('note_on', channel=9, note=59, velocity=0, time=14),\n","    Message('note_on', channel=3, note=64, velocity=0, time=45),\n","    Message('note_on', channel=3, note=57, velocity=0, time=0),\n","    Message('note_on', channel=2, note=64, velocity=0, time=0),\n","    Message('note_on', channel=2, note=59, velocity=0, time=0),\n","    Message('note_on', channel=3, note=59, velocity=0, time=0),\n","    Message('note_on', channel=2, note=57, velocity=0, time=0),\n","    Message('note_on', channel=2, note=59, velocity=100, time=1),\n","    Message('note_on', channel=2, note=61, velocity=100, time=0),\n","    Message('note_on', channel=2, note=66, velocity=100, time=0),\n","    Message('note_on', channel=3, note=59, velocity=100, time=0),\n","    Message('note_on', channel=3, note=61, velocity=100, time=0),\n","    Message('note_on', channel=3, note=66, velocity=100, time=0),\n","    Message('note_on', channel=9, note=35, velocity=80, time=60),\n","    Message('note_on', channel=9, note=59, velocity=99, time=0),\n","    Message('note_on', channel=9, note=59, velocity=0, time=14),\n","    Message('note_on', channel=9, note=35, velocity=0, time=0),\n","    Message('note_on', channel=3, note=61, velocity=0, time=45),\n","    Message('note_on', channel=3, note=59, velocity=0, time=0),\n","    Message('note_on', channel=2, note=59, velocity=0, time=0),\n","    Message('note_on', channel=2, note=61, velocity=0, time=0),\n","    Message('note_on', channel=3, note=66, velocity=0, time=0),\n","    Message('note_on', channel=2, note=66, velocity=0, time=0),\n","    Message('note_on', channel=9, note=51, velocity=47, time=1),\n","    Message('note_on', channel=2, note=61, velocity=100, time=0),\n","    Message('note_on', channel=2, note=63, velocity=100, time=0),\n","    Message('note_on', channel=2, note=68, velocity=100, time=0),\n","    Message('note_on', channel=3, note=61, velocity=100, time=0),\n","    Message('note_on', channel=3, note=63, velocity=100, time=0),\n","    Message('note_on', channel=3, note=68, velocity=100, time=0),\n","    Message('note_on', channel=9, note=51, velocity=0, time=14),\n","    Message('note_on', channel=3, note=37, velocity=0, time=45),\n","    Message('note_on', channel=2, note=37, velocity=0, time=0),\n","    Message('note_on', channel=9, note=59, velocity=99, time=1),\n","    Message('note_on', channel=9, note=59, velocity=0, time=14),\n","    Message('note_on', channel=2, note=61, velocity=0, time=45),\n","    Message('note_on', channel=2, note=68, velocity=0, time=0),\n","    Message('note_on', channel=2, note=63, velocity=0, time=0),\n","    Message('note_on', channel=3, note=68, velocity=0, time=0),\n","    Message('note_on', channel=3, note=63, velocity=0, time=0),\n","    Message('note_on', channel=3, note=61, velocity=0, time=0),\n","    Message('note_on', channel=2, note=57, velocity=100, time=1),\n","    Message('note_on', channel=2, note=59, velocity=100, time=0),\n","    Message('note_on', channel=2, note=64, velocity=100, time=0),\n","    Message('note_on', channel=3, note=57, velocity=100, time=0),\n","    Message('note_on', channel=3, note=59, velocity=100, time=0),\n","    Message('note_on', channel=3, note=64, velocity=100, time=0),\n","    Message('note_on', channel=9, note=59, velocity=89, time=60),\n","    Message('note_on', channel=9, note=59, velocity=0, time=14),\n","    Message('note_on', channel=3, note=64, velocity=0, time=45),\n","    Message('note_on', channel=3, note=57, velocity=0, time=0),\n","    Message('note_on', channel=2, note=57, velocity=0, time=0),\n","    Message('note_on', channel=2, note=59, velocity=0, time=0),\n","    Message('note_on', channel=2, note=64, velocity=0, time=0),\n","    Message('note_on', channel=3, note=59, velocity=0, time=0),\n","    Message('note_on', channel=9, note=51, velocity=43, time=1),\n","    Message('note_on', channel=2, note=59, velocity=100, time=0),\n","    Message('note_on', channel=2, note=61, velocity=100, time=0),\n","    Message('note_on', channel=2, note=66, velocity=100, time=0),\n","    Message('note_on', channel=3, note=59, velocity=100, time=0),\n","    Message('note_on', channel=3, note=61, velocity=100, time=0),\n","    Message('note_on', channel=3, note=66, velocity=100, time=0),\n","    Message('note_on', channel=9, note=51, velocity=0, time=14),\n","    Message('note_on', channel=9, note=46, velocity=90, time=46),\n","    Message('note_on', channel=9, note=40, velocity=90, time=0),\n","    Message('note_on', channel=9, note=59, velocity=89, time=0),\n","    Message('note_on', channel=9, note=59, velocity=0, time=14),\n","    Message('note_on', channel=9, note=40, velocity=0, time=0),\n","    Message('note_on', channel=9, note=46, velocity=0, time=0),\n","    Message('note_on', channel=2, note=66, velocity=0, time=105),\n","    Message('note_on', channel=3, note=59, velocity=0, time=0),\n","    Message('note_on', channel=2, note=59, velocity=0, time=0),\n","    Message('note_on', channel=2, note=61, velocity=0, time=0),\n","    Message('note_on', channel=1, note=25, velocity=0, time=0),\n","    Message('note_on', channel=3, note=61, velocity=0, time=0),\n","    Message('note_on', channel=3, note=66, velocity=0, time=0),\n","    Message('note_on', channel=9, note=44, velocity=89, time=1),\n","    Message('note_on', channel=1, note=32, velocity=100, time=0),\n","    Message('note_on', channel=2, note=57, velocity=100, time=0),\n","    Message('note_on', channel=2, note=59, velocity=100, time=0),\n","    Message('note_on', channel=2, note=64, velocity=100, time=0),\n","    Message('note_on', channel=3, note=57, velocity=100, time=0),\n","    Message('note_on', channel=3, note=59, velocity=100, time=0),\n","    Message('note_on', channel=3, note=64, velocity=100, time=0),\n","    Message('note_on', channel=9, note=44, velocity=0, time=14),\n","    Message('note_on', channel=1, note=32, velocity=0, time=45),\n","    Message('note_on', channel=9, note=40, velocity=70, time=1),\n","    Message('note_on', channel=9, note=51, velocity=44, time=0),\n","    Message('note_on', channel=1, note=37, velocity=100, time=0),\n","    Message('note_on', channel=9, note=51, velocity=0, time=14),\n","    Message('note_on', channel=9, note=40, velocity=0, time=0),\n","    Message('note_on', channel=1, note=37, velocity=0, time=45),\n","    Message('note_on', channel=9, note=35, velocity=80, time=1),\n","    Message('note_on', channel=9, note=51, velocity=99, time=0),\n","    Message('note_on', channel=1, note=32, velocity=100, time=0),\n","    Message('note_on', channel=9, note=51, velocity=0, time=14),\n","    Message('note_on', channel=9, note=35, velocity=0, time=0),\n","    Message('note_on', channel=2, note=59, velocity=0, time=45),\n","    Message('note_on', channel=3, note=57, velocity=0, time=0),\n","    Message('note_on', channel=2, note=57, velocity=0, time=0),\n","    Message('note_on', channel=2, note=64, velocity=0, time=0),\n","    Message('note_on', channel=1, note=32, velocity=0, time=0),\n","    Message('note_on', channel=3, note=59, velocity=0, time=0),\n","    Message('note_on', channel=3, note=64, velocity=0, time=0),\n","    Message('note_on', channel=9, note=35, velocity=80, time=1),\n","    Message('note_on', channel=1, note=25, velocity=100, time=0),\n","    Message('note_on', channel=2, note=59, velocity=100, time=0),\n","    Message('note_on', channel=2, note=61, velocity=100, time=0),\n","    Message('note_on', channel=2, note=66, velocity=100, time=0),\n","    Message('note_on', channel=3, note=59, velocity=100, time=0),\n","    Message('note_on', channel=3, note=61, velocity=100, time=0),\n","    Message('note_on', channel=3, note=66, velocity=100, time=0),\n","    Message('note_on', channel=9, note=35, velocity=0, time=14),\n","    Message('note_on', channel=9, note=44, velocity=80, time=46),\n","    Message('note_on', channel=9, note=44, velocity=0, time=14),\n","    Message('note_on', channel=9, note=59, velocity=59, time=46),\n","    Message('note_on', channel=9, note=59, velocity=0, time=14),\n","    Message('note_on', channel=9, note=59, velocity=99, time=46),\n","    Message('note_on', channel=9, note=59, velocity=0, time=14),\n","    Message('note_on', channel=3, note=66, velocity=0, time=45),\n","    Message('note_on', channel=3, note=59, velocity=0, time=0),\n","    Message('note_on', channel=2, note=59, velocity=0, time=0),\n","    Message('note_on', channel=2, note=61, velocity=0, time=0),\n","    Message('note_on', channel=2, note=66, velocity=0, time=0),\n","    Message('note_on', channel=3, note=61, velocity=0, time=0),\n","    Message('note_on', channel=2, note=61, velocity=100, time=1),\n","    Message('note_on', channel=2, note=63, velocity=100, time=0),\n","    Message('note_on', channel=2, note=68, velocity=100, time=0),\n","    Message('note_on', channel=3, note=61, velocity=100, time=0),\n","    Message('note_on', channel=3, note=63, velocity=100, time=0),\n","    Message('note_on', channel=3, note=68, velocity=100, time=0),\n","    Message('note_on', channel=9, note=59, velocity=99, time=60),\n","    Message('note_on', channel=9, note=59, velocity=0, time=14),\n","    Message('note_on', channel=9, note=40, velocity=90, time=46),\n","    Message('note_on', channel=9, note=51, velocity=47, time=0),\n","    Message('note_on', channel=9, note=51, velocity=0, time=14),\n","    Message('note_on', channel=9, note=40, velocity=0, time=0),\n","    Message('note_on', channel=9, note=59, velocity=99, time=46),\n","    Message('note_on', channel=9, note=59, velocity=0, time=14),\n","    Message('note_on', channel=2, note=68, velocity=0, time=45),\n","    Message('note_on', channel=3, note=61, velocity=0, time=0),\n","    Message('note_on', channel=2, note=61, velocity=0, time=0),\n","    Message('note_on', channel=2, note=63, velocity=0, time=0),\n","    Message('note_on', channel=3, note=68, velocity=0, time=0),\n","    Message('note_on', channel=3, note=63, velocity=0, time=0),\n","    Message('note_on', channel=9, note=40, velocity=60, time=1),\n","    Message('note_on', channel=2, note=57, velocity=100, time=0),\n","    Message('note_on', channel=2, note=59, velocity=100, time=0),\n","    Message('note_on', channel=2, note=64, velocity=100, time=0),\n","    Message('note_on', channel=3, note=57, velocity=100, time=0),\n","    Message('note_on', channel=3, note=59, velocity=100, time=0),\n","    Message('note_on', channel=3, note=64, velocity=100, time=0),\n","    Message('note_on', channel=9, note=40, velocity=0, time=14),\n","    Message('note_on', channel=9, note=59, velocity=89, time=46),\n","    Message('note_on', channel=9, note=59, velocity=0, time=14),\n","    Message('note_on', channel=9, note=51, velocity=43, time=46),\n","    Message('note_on', channel=9, note=51, velocity=0, time=14),\n","    Message('note_on', channel=9, note=59, velocity=89, time=46),\n","    Message('note_on', channel=9, note=59, velocity=0, time=14),\n","    Message('note_on', channel=1, note=25, velocity=0, time=45),\n","    Message('note_on', channel=3, note=57, velocity=0, time=0),\n","    Message('note_on', channel=2, note=57, velocity=0, time=0),\n","    Message('note_on', channel=2, note=59, velocity=0, time=0),\n","    Message('note_on', channel=2, note=64, velocity=0, time=0),\n","    Message('note_on', channel=3, note=59, velocity=0, time=0),\n","    Message('note_on', channel=3, note=64, velocity=0, time=0),\n","    Message('note_on', channel=9, note=36, velocity=80, time=1),\n","    Message('note_on', channel=1, note=31, velocity=100, time=0),\n","    Message('note_on', channel=2, note=64, velocity=100, time=0),\n","    Message('note_on', channel=2, note=59, velocity=100, time=0),\n","    Message('note_on', channel=2, note=57, velocity=100, time=0),\n","    Message('note_on', channel=3, note=64, velocity=100, time=0),\n","    Message('note_on', channel=3, note=59, velocity=100, time=0),\n","    Message('note_on', channel=3, note=57, velocity=100, time=0),\n","    Message('note_on', channel=9, note=36, velocity=0, time=14),\n","    Message('note_on', channel=9, note=44, velocity=89, time=46),\n","    Message('note_on', channel=9, note=44, velocity=0, time=14),\n","    Message('note_on', channel=9, note=40, velocity=70, time=46),\n","    Message('note_on', channel=9, note=51, velocity=44, time=0),\n","    Message('note_on', channel=9, note=51, velocity=0, time=14),\n","    Message('note_on', channel=9, note=40, velocity=0, time=0),\n","    Message('note_on', channel=9, note=40, velocity=34, time=1),\n","    Message('note_on', channel=9, note=40, velocity=0, time=14),\n","    Message('note_on', channel=9, note=40, velocity=42, time=1),\n","    Message('note_on', channel=9, note=40, velocity=0, time=14),\n","    Message('note_on', channel=9, note=40, velocity=40, time=1),\n","    Message('note_on', channel=9, note=40, velocity=0, time=14),\n","    Message('note_on', channel=9, note=40, velocity=70, time=1),\n","    Message('note_on', channel=9, note=51, velocity=99, time=0),\n","    Message('note_on', channel=9, note=51, velocity=0, time=14),\n","    Message('note_on', channel=9, note=40, velocity=0, time=0),\n","    Message('note_on', channel=2, note=57, velocity=0, time=45),\n","    Message('note_on', channel=3, note=64, velocity=0, time=0),\n","    Message('note_on', channel=2, note=64, velocity=0, time=0),\n","    Message('note_on', channel=2, note=59, velocity=0, time=0),\n","    Message('note_on', channel=3, note=57, velocity=0, time=0),\n","    Message('note_on', channel=3, note=59, velocity=0, time=0),\n","    Message('note_on', channel=1, note=31, velocity=0, time=0),\n","    Message('note_on', channel=9, note=36, velocity=80, time=1),\n","    Message('note_on', channel=1, note=25, velocity=100, time=0),\n","    Message('note_on', channel=2, note=56, velocity=100, time=0),\n","    Message('note_on', channel=2, note=61, velocity=100, time=0),\n","    Message('note_on', channel=2, note=63, velocity=100, time=0),\n","    Message('note_on', channel=3, note=56, velocity=100, time=0),\n","    Message('note_on', channel=3, note=61, velocity=100, time=0),\n","    Message('note_on', channel=3, note=63, velocity=100, time=0),\n","    Message('note_on', channel=9, note=36, velocity=0, time=14),\n","    Message('note_on', channel=9, note=44, velocity=80, time=46),\n","    Message('note_on', channel=9, note=44, velocity=0, time=14),\n","    Message('note_on', channel=9, note=59, velocity=59, time=46),\n","    Message('note_on', channel=9, note=59, velocity=0, time=14),\n","    Message('note_on', channel=9, note=59, velocity=99, time=46),\n","    Message('note_on', channel=9, note=59, velocity=0, time=14),\n","    Message('note_on', channel=3, note=63, velocity=0, time=45),\n","    Message('note_on', channel=3, note=56, velocity=0, time=0),\n","    Message('note_on', channel=2, note=56, velocity=0, time=0),\n","    Message('note_on', channel=2, note=61, velocity=0, time=0),\n","    Message('note_on', channel=2, note=63, velocity=0, time=0),\n","    Message('note_on', channel=3, note=61, velocity=0, time=0),\n","    Message('note_on', channel=9, note=40, velocity=50, time=1),\n","    Message('note_on', channel=2, note=59, velocity=100, time=0),\n","    Message('note_on', channel=2, note=57, velocity=100, time=0),\n","    Message('note_on', channel=2, note=64, velocity=100, time=0),\n","    Message('note_on', channel=3, note=59, velocity=100, time=0),\n","    Message('note_on', channel=3, note=57, velocity=100, time=0),\n","    Message('note_on', channel=3, note=64, velocity=100, time=0),\n","    Message('note_on', channel=9, note=40, velocity=0, time=14),\n","    Message('note_on', channel=9, note=40, velocity=100, time=46),\n","    Message('note_on', channel=9, note=59, velocity=99, time=0),\n","    Message('note_on', channel=9, note=59, velocity=0, time=14),\n","    Message('note_on', channel=9, note=40, velocity=0, time=0),\n","    Message('note_on', channel=2, note=64, velocity=0, time=45),\n","    Message('note_on', channel=3, note=59, velocity=0, time=0),\n","    Message('note_on', channel=2, note=59, velocity=0, time=0),\n","    Message('note_on', channel=2, note=57, velocity=0, time=0),\n","    Message('note_on', channel=3, note=64, velocity=0, time=0),\n","    Message('note_on', channel=3, note=57, velocity=0, time=0),\n","    Message('note_on', channel=9, note=51, velocity=47, time=1),\n","    Message('note_on', channel=2, note=59, velocity=100, time=0),\n","    Message('note_on', channel=2, note=61, velocity=100, time=0),\n","    Message('note_on', channel=2, note=66, velocity=100, time=0),\n","    Message('note_on', channel=3, note=59, velocity=100, time=0),\n","    Message('note_on', channel=3, note=61, velocity=100, time=0),\n","    Message('note_on', channel=3, note=66, velocity=100, time=0),\n","    Message('note_on', channel=9, note=51, velocity=0, time=14),\n","    Message('note_on', channel=9, note=59, velocity=99, time=46),\n","    Message('note_on', channel=9, note=59, velocity=0, time=14),\n","    Message('note_on', channel=3, note=66, velocity=0, time=45),\n","    Message('note_on', channel=3, note=59, velocity=0, time=0),\n","    Message('note_on', channel=2, note=59, velocity=0, time=0),\n","    Message('note_on', channel=2, note=61, velocity=0, time=0),\n","    Message('note_on', channel=2, note=66, velocity=0, time=0),\n","    Message('note_on', channel=3, note=61, velocity=0, time=0),\n","    Message('note_on', channel=9, note=36, velocity=80, time=1),\n","    Message('note_on', channel=2, note=61, velocity=100, time=0),\n","    Message('note_on', channel=2, note=63, velocity=100, time=0),\n","    Message('note_on', channel=2, note=68, velocity=100, time=0),\n","    Message('note_on', channel=3, note=61, velocity=100, time=0),\n","    Message('note_on', channel=3, note=63, velocity=100, time=0),\n","    Message('note_on', channel=3, note=68, velocity=100, time=0),\n","    Message('note_on', channel=9, note=36, velocity=0, time=14),\n","    Message('note_on', channel=9, note=46, velocity=100, time=46),\n","    Message('note_on', channel=9, note=40, velocity=100, time=0),\n","    Message('note_on', channel=9, note=59, velocity=89, time=0),\n","    Message('note_on', channel=9, note=59, velocity=0, time=14),\n","    Message('note_on', channel=9, note=40, velocity=0, time=0),\n","    Message('note_on', channel=9, note=46, velocity=0, time=0),\n","    Message('note_on', channel=2, note=68, velocity=0, time=45),\n","    Message('note_on', channel=3, note=61, velocity=0, time=0),\n","    Message('note_on', channel=2, note=61, velocity=0, time=0),\n","    Message('note_on', channel=2, note=63, velocity=0, time=0),\n","    Message('note_on', channel=3, note=68, velocity=0, time=0),\n","    Message('note_on', channel=3, note=63, velocity=0, time=0),\n","    Message('note_on', channel=9, note=51, velocity=43, time=1),\n","    Message('note_on', channel=2, note=57, velocity=100, time=0),\n","    Message('note_on', channel=2, note=59, velocity=100, time=0),\n","    Message('note_on', channel=2, note=64, velocity=100, time=0),\n","    Message('note_on', channel=3, note=57, velocity=100, time=0),\n","    Message('note_on', channel=3, note=59, velocity=100, time=0),\n","    Message('note_on', channel=3, note=64, velocity=100, time=0),\n","    Message('note_on', channel=9, note=51, velocity=0, time=14),\n","    Message('note_on', channel=9, note=59, velocity=89, time=46),\n","    Message('note_on', channel=9, note=59, velocity=0, time=14),\n","    Message('note_on', channel=3, note=64, velocity=0, time=45),\n","    Message('note_on', channel=3, note=57, velocity=0, time=0),\n","    Message('note_on', channel=2, note=57, velocity=0, time=0),\n","    Message('note_on', channel=2, note=59, velocity=0, time=0),\n","    Message('note_on', channel=2, note=64, velocity=0, time=0),\n","    Message('note_on', channel=3, note=59, velocity=0, time=0),\n","    Message('note_on', channel=2, note=59, velocity=100, time=1),\n","    Message('note_on', channel=2, note=61, velocity=100, time=0),\n","    Message('note_on', channel=2, note=66, velocity=100, time=0),\n","    Message('note_on', channel=3, note=59, velocity=100, time=0),\n","    Message('note_on', channel=3, note=61, velocity=100, time=0),\n","    Message('note_on', channel=3, note=66, velocity=100, time=0),\n","    Message('note_on', channel=9, note=44, velocity=89, time=60),\n","    Message('note_on', channel=9, note=44, velocity=0, time=14),\n","    Message('note_on', channel=9, note=40, velocity=70, time=46),\n","    Message('note_on', channel=9, note=51, velocity=44, time=0),\n","    Message('note_on', channel=9, note=51, velocity=0, time=14),\n","    Message('note_on', channel=9, note=40, velocity=0, time=0),\n","    Message('note_on', channel=2, note=66, velocity=0, time=45),\n","    Message('note_on', channel=3, note=59, velocity=0, time=0),\n","    Message('note_on', channel=2, note=59, velocity=0, time=0),\n","    Message('note_on', channel=2, note=61, velocity=0, time=0),\n","    Message('note_on', channel=1, note=25, velocity=0, time=0),\n","    Message('note_on', channel=3, note=61, velocity=0, time=0),\n","    Message('note_on', channel=3, note=66, velocity=0, time=0),\n","    Message('note_on', channel=9, note=51, velocity=99, time=1),\n","    Message('note_on', channel=1, note=37, velocity=100, time=0),\n","    Message('note_on', channel=2, note=57, velocity=100, time=0),\n","    Message('note_on', channel=2, note=59, velocity=100, time=0),\n","    Message('note_on', channel=2, note=64, velocity=100, time=0),\n","    Message('note_on', channel=3, note=57, velocity=100, time=0),\n","    Message('note_on', channel=3, note=59, velocity=100, time=0),\n","    Message('note_on', channel=3, note=64, velocity=100, time=0),\n","    Message('note_on', channel=9, note=51, velocity=0, time=14),\n","    Message('note_on', channel=9, note=36, velocity=70, time=46),\n","    Message('note_on', channel=9, note=36, velocity=0, time=14),\n","    Message('note_on', channel=9, note=36, velocity=70, time=46),\n","    Message('note_on', channel=9, note=44, velocity=80, time=0),\n","    Message('note_on', channel=9, note=44, velocity=0, time=14),\n","    Message('note_on', channel=9, note=36, velocity=0, time=0),\n","    Message('note_on', channel=9, note=59, velocity=59, time=46),\n","    Message('note_on', channel=9, note=59, velocity=0, time=14),\n","    Message('note_on', channel=2, note=64, velocity=0, time=45),\n","    Message('note_on', channel=3, note=57, velocity=0, time=0),\n","    Message('note_on', channel=2, note=57, velocity=0, time=0),\n","    Message('note_on', channel=2, note=59, velocity=0, time=0),\n","    Message('note_on', channel=1, note=37, velocity=0, time=0),\n","    Message('note_on', channel=3, note=59, velocity=0, time=0),\n","    Message('note_on', channel=3, note=64, velocity=0, time=0),\n","    Message('note_on', channel=9, note=36, velocity=70, time=1),\n","    Message('note_on', channel=9, note=59, velocity=99, time=0),\n","    Message('note_on', channel=1, note=28, velocity=100, time=0),\n","    Message('note_on', channel=2, note=59, velocity=100, time=0),\n","    Message('note_on', channel=2, note=61, velocity=100, time=0),\n","    Message('note_on', channel=2, note=66, velocity=100, time=0),\n","    Message('note_on', channel=3, note=59, velocity=100, time=0),\n","    Message('note_on', channel=3, note=61, velocity=100, time=0),\n","    Message('note_on', channel=3, note=66, velocity=100, time=0),\n","    Message('note_on', channel=9, note=59, velocity=0, time=14),\n","    Message('note_on', channel=9, note=36, velocity=0, time=0),\n","    Message('note_on', channel=9, note=38, velocity=40, time=46),\n","    Message('note_on', channel=9, note=38, velocity=0, time=14),\n","    Message('note_on', channel=9, note=40, velocity=80, time=46),\n","    Message('note_on', channel=9, note=59, velocity=99, time=0),\n","    Message('note_on', channel=9, note=59, velocity=0, time=14),\n","    Message('note_on', channel=9, note=40, velocity=0, time=0),\n","    Message('note_on', channel=9, note=40, velocity=40, time=46),\n","    Message('note_on', channel=9, note=51, velocity=47, time=0),\n","    Message('note_on', channel=9, note=51, velocity=0, time=14),\n","    Message('note_on', channel=9, note=40, velocity=0, time=0),\n","    Message('note_on', channel=3, note=66, velocity=0, time=45),\n","    Message('note_on', channel=2, note=66, velocity=0, time=0),\n","    Message('note_on', channel=1, note=28, velocity=0, time=0),\n","    Message('note_on', channel=2, note=61, velocity=0, time=0),\n","    Message('note_on', channel=3, note=61, velocity=0, time=0),\n","    Message('note_on', channel=3, note=59, velocity=0, time=0),\n","    Message('note_on', channel=2, note=59, velocity=0, time=0),\n","    Message('note_on', channel=9, note=49, velocity=80, time=1),\n","    Message('note_on', channel=9, note=36, velocity=80, time=0),\n","    Message('note_on', channel=9, note=59, velocity=99, time=0),\n","    Message('note_on', channel=1, note=33, velocity=100, time=0),\n","    Message('note_on', channel=2, note=61, velocity=100, time=0),\n","    Message('note_on', channel=2, note=63, velocity=100, time=0),\n","    Message('note_on', channel=2, note=68, velocity=100, time=0),\n","    Message('note_on', channel=3, note=61, velocity=100, time=0),\n","    Message('note_on', channel=3, note=63, velocity=100, time=0),\n","    Message('note_on', channel=3, note=68, velocity=100, time=0),\n","    Message('note_on', channel=9, note=59, velocity=0, time=14),\n","    Message('note_on', channel=9, note=49, velocity=0, time=0),\n","    Message('note_on', channel=9, note=36, velocity=0, time=0),\n","    Message('note_on', channel=9, note=59, velocity=89, time=106),\n","    Message('note_on', channel=9, note=59, velocity=0, time=14),\n","    Message('note_on', channel=9, note=51, velocity=43, time=46),\n","    Message('note_on', channel=9, note=51, velocity=0, time=14),\n","    Message('note_on', channel=9, note=59, velocity=89, time=46),\n","    Message('note_on', channel=4, note=85, velocity=100, time=0),\n","    Message('note_on', channel=4, note=87, velocity=100, time=0),\n","    Message('note_on', channel=4, note=92, velocity=100, time=0),\n","    Message('note_on', channel=4, note=73, velocity=100, time=0),\n","    Message('note_on', channel=4, note=75, velocity=100, time=0),\n","    Message('note_on', channel=4, note=80, velocity=100, time=0),\n","    Message('note_on', channel=9, note=59, velocity=0, time=14),\n","    Message('note_on', channel=9, note=59, velocity=89, time=106),\n","    Message('note_on', channel=9, note=59, velocity=0, time=14),\n","    Message('note_on', channel=9, note=51, velocity=44, time=46),\n","    Message('note_on', channel=9, note=51, velocity=0, time=14),\n","    Message('note_on', channel=9, note=51, velocity=99, time=46),\n","    Message('note_on', channel=9, note=51, velocity=0, time=14),\n","    Message('note_on', channel=9, note=46, velocity=80, time=46),\n","    Message('note_on', channel=9, note=40, velocity=90, time=0),\n","    Message('note_on', channel=9, note=40, velocity=0, time=14),\n","    Message('note_on', channel=9, note=46, velocity=0, time=0),\n","    Message('note_on', channel=9, note=59, velocity=59, time=106),\n","    Message('note_on', channel=9, note=59, velocity=0, time=14),\n","    Message('note_on', channel=9, note=59, velocity=99, time=46),\n","    Message('note_on', channel=9, note=59, velocity=0, time=14),\n","    Message('note_on', channel=9, note=40, velocity=89, time=46),\n","    Message('note_on', channel=9, note=40, velocity=0, time=14),\n","    Message('note_on', channel=9, note=50, velocity=99, time=46),\n","    Message('note_on', channel=9, note=59, velocity=99, time=0),\n","    Message('note_on', channel=9, note=59, velocity=0, time=14),\n","    Message('note_on', channel=9, note=50, velocity=0, time=0),\n","    Message('note_on', channel=9, note=50, velocity=89, time=16),\n","    Message('note_on', channel=9, note=50, velocity=0, time=14),\n","    Message('note_on', channel=9, note=48, velocity=89, time=16),\n","    Message('note_on', channel=9, note=51, velocity=47, time=0),\n","    Message('note_on', channel=9, note=51, velocity=0, time=14),\n","    Message('note_on', channel=9, note=48, velocity=0, time=0),\n","    Message('note_on', channel=4, note=80, velocity=0, time=45),\n","    Message('note_on', channel=3, note=61, velocity=0, time=0),\n","    Message('note_on', channel=2, note=63, velocity=0, time=0),\n","    Message('note_on', channel=4, note=85, velocity=0, time=0),\n","    Message('note_on', channel=3, note=68, velocity=0, time=0),\n","    Message('note_on', channel=3, note=63, velocity=0, time=0),\n","    Message('note_on', channel=1, note=33, velocity=0, time=0),\n","    Message('note_on', channel=4, note=75, velocity=0, time=0),\n","    Message('note_on', channel=4, note=73, velocity=0, time=0),\n","    Message('note_on', channel=4, note=87, velocity=0, time=0),\n","    Message('note_on', channel=2, note=61, velocity=0, time=0),\n","    Message('note_on', channel=2, note=68, velocity=0, time=0),\n","    Message('note_on', channel=4, note=92, velocity=0, time=0),\n","    Message('note_on', channel=9, note=57, velocity=79, time=1),\n","    Message('note_on', channel=9, note=36, velocity=79, time=0),\n","    Message('note_on', channel=9, note=59, velocity=99, time=0),\n","    Message('note_on', channel=1, note=29, velocity=100, time=0),\n","    Message('note_on', channel=2, note=59, velocity=100, time=0),\n","    Message('note_on', channel=2, note=62, velocity=100, time=0),\n","    Message('note_on', channel=2, note=65, velocity=100, time=0),\n","    Message('note_on', channel=2, note=70, velocity=100, time=0),\n","    Message('note_on', channel=3, note=59, velocity=100, time=0),\n","    Message('note_on', channel=3, note=62, velocity=100, time=0),\n","    Message('note_on', channel=3, note=65, velocity=100, time=0),\n","    Message('note_on', channel=3, note=70, velocity=100, time=0),\n","    Message('note_on', channel=9, note=59, velocity=0, time=14),\n","    Message('note_on', channel=9, note=57, velocity=0, time=0),\n","    Message('note_on', channel=9, note=36, velocity=0, time=0),\n","    Message('note_on', channel=9, note=59, velocity=89, time=106),\n","    Message('note_on', channel=9, note=59, velocity=0, time=14),\n","    Message('note_on', channel=9, note=51, velocity=43, time=46),\n","    Message('note_on', channel=9, note=51, velocity=0, time=14),\n","    Message('note_on', channel=9, note=59, velocity=89, time=46),\n","    Message('note_on', channel=4, note=83, velocity=100, time=0),\n","    Message('note_on', channel=4, note=86, velocity=100, time=0),\n","    Message('note_on', channel=4, note=89, velocity=100, time=0),\n","    Message('note_on', channel=4, note=94, velocity=100, time=0),\n","    Message('note_on', channel=4, note=71, velocity=100, time=0),\n","    Message('note_on', channel=4, note=74, velocity=100, time=0),\n","    Message('note_on', channel=4, note=77, velocity=100, time=0),\n","    Message('note_on', channel=4, note=82, velocity=100, time=0),\n","    Message('note_on', channel=9, note=59, velocity=0, time=14),\n","    Message('note_on', channel=9, note=44, velocity=89, time=106),\n","    Message('note_on', channel=9, note=44, velocity=0, time=14),\n","    Message('note_on', channel=9, note=51, velocity=44, time=46),\n","    Message('note_on', channel=9, note=51, velocity=0, time=14),\n","    Message('note_on', channel=9, note=51, velocity=99, time=46),\n","    Message('note_on', channel=9, note=51, velocity=0, time=14),\n","    Message('note_on', channel=9, note=36, velocity=79, time=46),\n","    Message('note_on', channel=9, note=36, velocity=0, time=14),\n","    Message('note_on', channel=9, note=51, velocity=89, time=46),\n","    Message('note_on', channel=9, note=46, velocity=89, time=0),\n","    Message('note_on', channel=9, note=40, velocity=99, time=0),\n","    Message('note_on', channel=9, note=40, velocity=0, time=14),\n","    Message('note_on', channel=9, note=46, velocity=0, time=0),\n","    Message('note_on', channel=9, note=51, velocity=0, time=0),\n","    Message('note_on', channel=9, note=59, velocity=59, time=46),\n","    Message('note_on', channel=9, note=59, velocity=0, time=14),\n","    Message('note_on', channel=9, note=59, velocity=99, time=46),\n","    Message('note_on', channel=9, note=59, velocity=0, time=14),\n","    Message('note_on', channel=1, note=29, velocity=0, time=45),\n","    Message('note_on', channel=9, note=36, velocity=79, time=1),\n","    Message('note_on', channel=1, note=29, velocity=100, time=0),\n","    Message('note_on', channel=9, note=36, velocity=0, time=14),\n","    Message('note_on', channel=9, note=59, velocity=99, time=46),\n","    Message('note_on', channel=9, note=59, velocity=0, time=14),\n","    Message('note_on', channel=1, note=29, velocity=0, time=45),\n","    Message('note_on', channel=9, note=51, velocity=47, time=1),\n","    Message('note_on', channel=1, note=32, velocity=100, time=0),\n","    Message('note_on', channel=9, note=51, velocity=0, time=14),\n","    Message('note_on', channel=2, note=62, velocity=0, time=45),\n","    Message('note_on', channel=4, note=77, velocity=0, time=0),\n","    Message('note_on', channel=2, note=70, velocity=0, time=0),\n","    Message('note_on', channel=1, note=32, velocity=0, time=0),\n","    Message('note_on', channel=2, note=65, velocity=0, time=0),\n","    Message('note_on', channel=3, note=62, velocity=0, time=0),\n","    Message('note_on', channel=3, note=70, velocity=0, time=0),\n","    Message('note_on', channel=4, note=74, velocity=0, time=0),\n","    Message('note_on', channel=2, note=59, velocity=0, time=0),\n","    Message('note_on', channel=4, note=82, velocity=0, time=0),\n","    Message('note_on', channel=3, note=59, velocity=0, time=0),\n","    Message('note_on', channel=4, note=89, velocity=0, time=0),\n","    Message('note_on', channel=4, note=86, velocity=0, time=0),\n","    Message('note_on', channel=3, note=65, velocity=0, time=0),\n","    Message('note_on', channel=4, note=94, velocity=0, time=0),\n","    Message('note_on', channel=9, note=59, velocity=99, time=1),\n","    Message('note_on', channel=1, note=34, velocity=100, time=0),\n","    Message('note_on', channel=2, note=56, velocity=100, time=0),\n","    Message('note_on', channel=2, note=59, velocity=100, time=0),\n","    Message('note_on', channel=2, note=62, velocity=100, time=0),\n","    Message('note_on', channel=2, note=67, velocity=100, time=0),\n","    Message('note_on', channel=3, note=56, velocity=100, time=0),\n","    Message('note_on', channel=3, note=59, velocity=100, time=0),\n","    Message('note_on', channel=3, note=62, velocity=100, time=0),\n","    Message('note_on', channel=3, note=67, velocity=100, time=0),\n","    Message('note_on', channel=9, note=59, velocity=0, time=14),\n","    Message('note_on', channel=4, note=71, velocity=0, time=15),\n","    Message('note_on', channel=4, note=83, velocity=0, time=0),\n","    Message('note_on', channel=9, note=36, velocity=79, time=31),\n","    Message('note_on', channel=9, note=36, velocity=0, time=14),\n","    Message('note_on', channel=9, note=51, velocity=99, time=46),\n","    Message('note_on', channel=9, note=46, velocity=99, time=0),\n","    Message('note_on', channel=9, note=40, velocity=99, time=0),\n","    Message('note_on', channel=9, note=59, velocity=89, time=0),\n","    Message('note_on', channel=9, note=59, velocity=0, time=14),\n","    Message('note_on', channel=9, note=51, velocity=0, time=0),\n","    Message('note_on', channel=9, note=40, velocity=0, time=0),\n","    Message('note_on', channel=9, note=46, velocity=0, time=0),\n","    Message('note_on', channel=9, note=51, velocity=43, time=46),\n","    Message('note_on', channel=9, note=51, velocity=0, time=14),\n","    Message('note_on', channel=9, note=59, velocity=89, time=46),\n","    Message('note_on', channel=4, note=80, velocity=100, time=0),\n","    Message('note_on', channel=4, note=83, velocity=100, time=0),\n","    Message('note_on', channel=4, note=86, velocity=100, time=0),\n","    Message('note_on', channel=4, note=91, velocity=100, time=0),\n","    Message('note_on', channel=4, note=68, velocity=100, time=0),\n","    Message('note_on', channel=4, note=71, velocity=100, time=0),\n","    Message('note_on', channel=4, note=74, velocity=100, time=0),\n","    Message('note_on', channel=4, note=79, velocity=100, time=0),\n","    Message('note_on', channel=9, note=59, velocity=0, time=14),\n","    Message('note_on', channel=9, note=46, velocity=69, time=46),\n","    Message('note_on', channel=9, note=36, velocity=79, time=0),\n","    Message('note_on', channel=9, note=36, velocity=0, time=14),\n","    Message('note_on', channel=9, note=46, velocity=0, time=0),\n","    Message('note_on', channel=9, note=46, velocity=99, time=106),\n","    Message('note_on', channel=9, note=40, velocity=99, time=0),\n","    Message('note_on', channel=9, note=51, velocity=74, time=0),\n","    Message('note_on', channel=9, note=51, velocity=0, time=14),\n","    Message('note_on', channel=9, note=40, velocity=0, time=0),\n","    Message('note_on', channel=9, note=46, velocity=0, time=0),\n","    Message('note_on', channel=9, note=51, velocity=99, time=106),\n","    Message('note_on', channel=9, note=51, velocity=0, time=14),\n","    Message('note_on', channel=9, note=44, velocity=80, time=46),\n","    Message('note_on', channel=9, note=44, velocity=0, time=14),\n","    Message('note_on', channel=9, note=59, velocity=59, time=46),\n","    Message('note_on', channel=9, note=59, velocity=0, time=14),\n","    Message('note_on', channel=9, note=59, velocity=99, time=46),\n","    Message('note_on', channel=9, note=59, velocity=0, time=14),\n","    Message('note_on', channel=9, note=38, velocity=30, time=46),\n","    Message('note_on', channel=9, note=38, velocity=0, time=14),\n","    Message('note_on', channel=9, note=40, velocity=50, time=46),\n","    Message('note_on', channel=9, note=59, velocity=99, time=0),\n","    Message('note_on', channel=9, note=59, velocity=0, time=14),\n","    Message('note_on', channel=9, note=40, velocity=0, time=0),\n","    Message('note_on', channel=9, note=40, velocity=60, time=46),\n","    Message('note_on', channel=9, note=38, velocity=60, time=0),\n","    Message('note_on', channel=9, note=51, velocity=47, time=0),\n","    Message('note_on', channel=9, note=51, velocity=0, time=14),\n","    Message('note_on', channel=9, note=38, velocity=0, time=0),\n","    Message('note_on', channel=9, note=40, velocity=0, time=0),\n","    Message('note_on', channel=4, note=79, velocity=0, time=45),\n","    Message('note_on', channel=3, note=56, velocity=0, time=0),\n","    Message('note_on', channel=1, note=34, velocity=0, time=0),\n","    Message('note_on', channel=4, note=86, velocity=0, time=0),\n","    Message('note_on', channel=2, note=62, velocity=0, time=0),\n","    Message('note_on', channel=2, note=56, velocity=0, time=0),\n","    Message('note_on', channel=3, note=67, velocity=0, time=0),\n","    Message('note_on', channel=2, note=59, velocity=0, time=0),\n","    Message('note_on', channel=3, note=59, velocity=0, time=0),\n","    Message('note_on', channel=2, note=67, velocity=0, time=0),\n","    Message('note_on', channel=4, note=80, velocity=0, time=0),\n","    Message('note_on', channel=4, note=91, velocity=0, time=0),\n","    Message('note_on', channel=4, note=83, velocity=0, time=0),\n","    Message('note_on', channel=3, note=62, velocity=0, time=0),\n","    Message('note_on', channel=4, note=71, velocity=0, time=0),\n","    Message('note_on', channel=4, note=68, velocity=0, time=0),\n","    Message('note_on', channel=4, note=74, velocity=0, time=0),\n","    Message('note_on', channel=9, note=49, velocity=60, time=1),\n","    Message('note_on', channel=9, note=36, velocity=60, time=0),\n","    Message('note_on', channel=9, note=59, velocity=99, time=0),\n","    Message('note_on', channel=1, note=26, velocity=100, time=0),\n","    Message('note_on', channel=2, note=55, velocity=100, time=0),\n","    Message('note_on', channel=2, note=60, velocity=100, time=0),\n","    Message('note_on', channel=2, note=62, velocity=100, time=0),\n","    Message('note_on', channel=3, note=55, velocity=100, time=0),\n","    Message('note_on', channel=3, note=60, velocity=100, time=0),\n","    Message('note_on', channel=3, note=62, velocity=100, time=0),\n","    Message('note_on', channel=9, note=59, velocity=0, time=14),\n","    Message('note_on', channel=9, note=49, velocity=0, time=0),\n","    Message('note_on', channel=9, note=36, velocity=0, time=0),\n","    Message('note_on', channel=2, note=44, velocity=100, time=42),\n","    Message('note_on', channel=3, note=44, velocity=100, time=0),\n","    Message('note_on', channel=9, note=59, velocity=89, time=64),\n","    Message('note_on', channel=9, note=59, velocity=0, time=14),\n","    Message('note_on', channel=9, note=46, velocity=60, time=46),\n","    Message('note_on', channel=9, note=51, velocity=93, time=0),\n","    Message('note_on', channel=9, note=51, velocity=0, time=14),\n","    Message('note_on', channel=9, note=46, velocity=0, time=0),\n","    Message('note_on', channel=9, note=59, velocity=89, time=46),\n","    Message('note_on', channel=4, note=79, velocity=100, time=0),\n","    Message('note_on', channel=4, note=84, velocity=100, time=0),\n","    Message('note_on', channel=4, note=86, velocity=100, time=0),\n","    Message('note_on', channel=4, note=67, velocity=100, time=0),\n","    Message('note_on', channel=4, note=72, velocity=100, time=0),\n","    Message('note_on', channel=4, note=74, velocity=100, time=0),\n","    Message('note_on', channel=9, note=59, velocity=0, time=14),\n","    Message('note_on', channel=4, note=68, velocity=100, time=42),\n","    Message('note_on', channel=4, note=56, velocity=100, time=0),\n","    Message('note_on', channel=9, note=44, velocity=89, time=64),\n","    Message('note_on', channel=9, note=44, velocity=0, time=14),\n","    Message('note_on', channel=9, note=40, velocity=83, time=46),\n","    Message('note_on', channel=9, note=51, velocity=44, time=0),\n","    Message('note_on', channel=9, note=51, velocity=0, time=14),\n","    Message('note_on', channel=9, note=40, velocity=0, time=0),\n","    Message('note_on', channel=9, note=51, velocity=99, time=46),\n","    Message('note_on', channel=9, note=51, velocity=0, time=14),\n","    Message('note_on', channel=9, note=36, velocity=53, time=46),\n","    Message('note_on', channel=9, note=36, velocity=0, time=14),\n","    Message('note_on', channel=9, note=36, velocity=63, time=46),\n","    Message('note_on', channel=9, note=44, velocity=80, time=0),\n","    Message('note_on', channel=9, note=44, velocity=0, time=14),\n","    Message('note_on', channel=9, note=36, velocity=0, time=0),\n","    Message('note_on', channel=9, note=59, velocity=59, time=46),\n","    Message('note_on', channel=9, note=59, velocity=0, time=14),\n","    Message('note_on', channel=9, note=59, velocity=99, time=46),\n","    Message('note_on', channel=9, note=59, velocity=0, time=14),\n","    Message('note_on', channel=9, note=40, velocity=33, time=39),\n","    Message('note_on', channel=9, note=40, velocity=83, time=7),\n","    Message('note_on', channel=9, note=40, velocity=0, time=7),\n","    Message('note_on', channel=9, note=40, velocity=0, time=7),\n","    Message('note_on', channel=9, note=40, velocity=43, time=39),\n","    Message('note_on', channel=9, note=40, velocity=93, time=7),\n","    Message('note_on', channel=9, note=59, velocity=99, time=0),\n","    Message('note_on', channel=9, note=40, velocity=0, time=7),\n","    Message('note_on', channel=9, note=59, velocity=0, time=7),\n","    Message('note_on', channel=9, note=40, velocity=0, time=0),\n","    Message('note_on', channel=9, note=36, velocity=63, time=46),\n","    Message('note_on', channel=9, note=51, velocity=47, time=0),\n","    Message('note_on', channel=9, note=51, velocity=0, time=14),\n","    Message('note_on', channel=9, note=36, velocity=0, time=0),\n","    Message('note_on', channel=4, note=79, velocity=0, time=45),\n","    Message('note_on', channel=3, note=60, velocity=0, time=0),\n","    Message('note_on', channel=4, note=74, velocity=0, time=0),\n","    Message('note_on', channel=4, note=86, velocity=0, time=0),\n","    Message('note_on', channel=2, note=62, velocity=0, time=0),\n","    Message('note_on', channel=3, note=55, velocity=0, time=0),\n","    Message('note_on', channel=2, note=60, velocity=0, time=0),\n","    Message('note_on', channel=1, note=26, velocity=0, time=0),\n","    Message('note_on', channel=3, note=62, velocity=0, time=0),\n","    Message('note_on', channel=2, note=55, velocity=0, time=0),\n","    Message('note_on', channel=4, note=72, velocity=0, time=0),\n","    Message('note_on', channel=4, note=67, velocity=0, time=0),\n","    Message('note_on', channel=4, note=84, velocity=0, time=0),\n","    Message('note_on', channel=3, note=44, velocity=0, time=56),\n","    Message('note_on', channel=2, note=44, velocity=0, time=0),\n","    Message('note_on', channel=4, note=56, velocity=0, time=240),\n","    Message('note_on', channel=4, note=68, velocity=0, time=0),\n","    MetaMessage('end_of_track', time=0)])\n","])\n"]}]},{"cell_type":"code","source":["!git clone https://github.com/jason9693/midi-neural-processor"],"metadata":{"colab":{"base_uri":"https://localhost:8080/"},"id":"8ROSGTC0sJwU","executionInfo":{"status":"ok","timestamp":1668371732088,"user_tz":300,"elapsed":1370,"user":{"displayName":"yeeb","userId":"09671650123333902832"}},"outputId":"7f62c99e-5e39-4406-f8b6-c0c12765f4d2"},"execution_count":null,"outputs":[{"output_type":"stream","name":"stdout","text":["Cloning into 'midi-neural-processor'...\n","remote: Enumerating objects: 27, done.\u001b[K\n","remote: Counting objects: 100% (1/1), done.\u001b[K\n","remote: Total 27 (delta 0), reused 0 (delta 0), pack-reused 26\u001b[K\n","Unpacking objects: 100% (27/27), done.\n"]}]},{"cell_type":"code","source":["%cd midi-neural-processor/"],"metadata":{"colab":{"base_uri":"https://localhost:8080/"},"id":"Q9fQFQn-tE7a","executionInfo":{"status":"ok","timestamp":1668371737427,"user_tz":300,"elapsed":312,"user":{"displayName":"yeeb","userId":"09671650123333902832"}},"outputId":"15e997e4-6a6c-4412-fac8-ab52d90489dc"},"execution_count":null,"outputs":[{"output_type":"stream","name":"stdout","text":["/content/python-midi/midi-neural-processor\n"]}]},{"cell_type":"code","source":["!pip install pretty_midi"],"metadata":{"colab":{"base_uri":"https://localhost:8080/"},"id":"-q2rHssYtLeW","executionInfo":{"status":"ok","timestamp":1668371770814,"user_tz":300,"elapsed":6605,"user":{"displayName":"yeeb","userId":"09671650123333902832"}},"outputId":"fd0ffd69-fbf9-47b5-8ba0-c471529b1a39"},"execution_count":null,"outputs":[{"output_type":"stream","name":"stdout","text":["Looking in indexes: https://pypi.org/simple, https://us-python.pkg.dev/colab-wheels/public/simple/\n","Collecting pretty_midi\n","  Downloading pretty_midi-0.2.9.tar.gz (5.6 MB)\n","\u001b[K     |████████████████████████████████| 5.6 MB 4.9 MB/s \n","\u001b[?25hRequirement already satisfied: numpy>=1.7.0 in /usr/local/lib/python3.7/dist-packages (from pretty_midi) (1.21.6)\n","Requirement already satisfied: mido>=1.1.16 in /usr/local/lib/python3.7/dist-packages (from pretty_midi) (1.2.10)\n","Requirement already satisfied: six in /usr/local/lib/python3.7/dist-packages (from pretty_midi) (1.15.0)\n","Building wheels for collected packages: pretty-midi\n","  Building wheel for pretty-midi (setup.py) ... \u001b[?25l\u001b[?25hdone\n","  Created wheel for pretty-midi: filename=pretty_midi-0.2.9-py3-none-any.whl size=5591955 sha256=f978b1b999cea9c477e81262b8e1f8c4205ee14ca0555fbc3fb6105d15d3f68e\n","  Stored in directory: /root/.cache/pip/wheels/ad/74/7c/a06473ca8dcb63efb98c1e67667ce39d52100f837835ea18fa\n","Successfully built pretty-midi\n","Installing collected packages: pretty-midi\n","Successfully installed pretty-midi-0.2.9\n"]}]},{"cell_type":"code","source":["from processor import encode_midi"],"metadata":{"id":"1XiqI3YZtGfI"},"execution_count":null,"outputs":[]},{"cell_type":"code","source":["encode_midi('/content/trading-fours/Jazz Midi/ABC.mid')"],"metadata":{"colab":{"base_uri":"https://localhost:8080/"},"id":"VJ0zxpY0tKVB","executionInfo":{"status":"ok","timestamp":1668371786356,"user_tz":300,"elapsed":279,"user":{"displayName":"yeeb","userId":"09671650123333902832"}},"outputId":"1a3d3a5e-6c44-4b78-da1c-fa29e575feef"},"execution_count":null,"outputs":[{"output_type":"execute_result","data":{"text/plain":["[381,\n"," 68,\n"," 381,\n"," 40,\n"," 381,\n"," 44,\n"," 381,\n"," 47,\n"," 381,\n"," 68,\n"," 381,\n"," 81,\n"," 277,\n"," 196,\n"," 196,\n"," 209,\n"," 266,\n"," 381,\n"," 68,\n"," 381,\n"," 68,\n"," 381,\n"," 60,\n"," 266,\n"," 196,\n"," 196,\n"," 261,\n"," 381,\n"," 68,\n"," 381,\n"," 68,\n"," 381,\n"," 60,\n"," 261,\n"," 188,\n"," 188,\n"," 261,\n"," 196,\n"," 196,\n"," 261,\n"," 381,\n"," 68,\n"," 381,\n"," 44,\n"," 381,\n"," 47,\n"," 381,\n"," 52,\n"," 381,\n"," 68,\n"," 266,\n"," 196,\n"," 196,\n"," 261,\n"," 381,\n"," 69,\n"," 381,\n"," 69,\n"," 381,\n"," 74,\n"," 261,\n"," 168,\n"," 172,\n"," 175,\n"," 172,\n"," 175,\n"," 260,\n"," 197,\n"," 197,\n"," 261,\n"," 381,\n"," 71,\n"," 381,\n"," 71,\n"," 381,\n"," 76,\n"," 261,\n"," 202,\n"," 261,\n"," 180,\n"," 266,\n"," 199,\n"," 199,\n"," 204,\n"," 266,\n"," 381,\n"," 68,\n"," 381,\n"," 40,\n"," 381,\n"," 44,\n"," 381,\n"," 47,\n"," 381,\n"," 68,\n"," 381,\n"," 81,\n"," 277,\n"," 196,\n"," 196,\n"," 209,\n"," 266,\n"," 381,\n"," 68,\n"," 381,\n"," 68,\n"," 381,\n"," 60,\n"," 266,\n"," 196,\n"," 196,\n"," 261,\n"," 381,\n"," 68,\n"," 381,\n"," 68,\n"," 381,\n"," 60,\n"," 261,\n"," 188,\n"," 188,\n"," 261,\n"," 196,\n"," 196,\n"," 261,\n"," 381,\n"," 68,\n"," 381,\n"," 44,\n"," 381,\n"," 47,\n"," 381,\n"," 52,\n"," 381,\n"," 68,\n"," 266,\n"," 196,\n"," 196,\n"," 261,\n"," 381,\n"," 69,\n"," 381,\n"," 69,\n"," 381,\n"," 74,\n"," 261,\n"," 168,\n"," 172,\n"," 175,\n"," 172,\n"," 175,\n"," 260,\n"," 197,\n"," 197,\n"," 261,\n"," 381,\n"," 71,\n"," 381,\n"," 71,\n"," 381,\n"," 76,\n"," 261,\n"," 202,\n"," 261,\n"," 180,\n"," 266,\n"," 199,\n"," 199,\n"," 204,\n"," 266,\n"," 381,\n"," 66,\n"," 381,\n"," 38,\n"," 381,\n"," 42,\n"," 381,\n"," 45,\n"," 381,\n"," 66,\n"," 381,\n"," 81,\n"," 277,\n"," 194,\n"," 194,\n"," 209,\n"," 266,\n"," 381,\n"," 68,\n"," 381,\n"," 68,\n"," 261,\n"," 196,\n"," 196,\n"," 258,\n"," 381,\n"," 66,\n"," 381,\n"," 66,\n"," 261,\n"," 194,\n"," 194,\n"," 258,\n"," 381,\n"," 64,\n"," 381,\n"," 64,\n"," 261,\n"," 192,\n"," 192,\n"," 266,\n"," 381,\n"," 66,\n"," 381,\n"," 66,\n"," 381,\n"," 81,\n"," 277,\n"," 194,\n"," 194,\n"," 209,\n"," 166,\n"," 170,\n"," 173,\n"," 266,\n"," 381,\n"," 68,\n"," 381,\n"," 68,\n"," 258,\n"," 196,\n"," 196,\n"," 261,\n"," 381,\n"," 66,\n"," 381,\n"," 66,\n"," 258,\n"," 194,\n"," 194,\n"," 261,\n"," 381,\n"," 64,\n"," 381,\n"," 64,\n"," 258,\n"," 192,\n"," 192,\n"," 269,\n"," 381,\n"," 66,\n"," 381,\n"," 50,\n"," 381,\n"," 54,\n"," 381,\n"," 57,\n"," 381,\n"," 66,\n"," 381,\n"," 81,\n"," 277,\n"," 194,\n"," 194,\n"," 209,\n"," 266,\n"," 381,\n"," 68,\n"," 381,\n"," 68,\n"," 258,\n"," 196,\n"," 196,\n"," 261,\n"," 381,\n"," 66,\n"," 381,\n"," 66,\n"," 258,\n"," 178,\n"," 182,\n"," 185,\n"," 194,\n"," 194,\n"," 261,\n"," 381,\n"," 64,\n"," 381,\n"," 64,\n"," 258,\n"," 192,\n"," 192,\n"," 269,\n"," 381,\n"," 66,\n"," 381,\n"," 38,\n"," 381,\n"," 42,\n"," 381,\n"," 45,\n"," 381,\n"," 66,\n"," 381,\n"," 81,\n"," 277,\n"," 209,\n"," 277,\n"," 194,\n"," 166,\n"," 170,\n"," 173,\n"," 194,\n"," 277,\n"," 381,\n"," 68,\n"," 381,\n"," 40,\n"," 381,\n"," 44,\n"," 381,\n"," 47,\n"," 381,\n"," 68,\n"," 381,\n"," 81,\n"," 277,\n"," 196,\n"," 196,\n"," 209,\n"," 266,\n"," 381,\n"," 68,\n"," 381,\n"," 68,\n"," 381,\n"," 60,\n"," 266,\n"," 196,\n"," 196,\n"," 261,\n"," 381,\n"," 68,\n"," 381,\n"," 68,\n"," 381,\n"," 60,\n"," 261,\n"," 188,\n"," 188,\n"," 261,\n"," 196,\n"," 196,\n"," 261,\n"," 381,\n"," 68,\n"," 381,\n"," 44,\n"," 381,\n"," 47,\n"," 381,\n"," 52,\n"," 381,\n"," 68,\n"," 266,\n"," 196,\n"," 196,\n"," 261,\n"," 381,\n"," 69,\n"," 381,\n"," 69,\n"," 381,\n"," 74,\n"," 261,\n"," 168,\n"," 172,\n"," 175,\n"," 172,\n"," 175,\n"," 260,\n"," 197,\n"," 197,\n"," 261,\n"," 381,\n"," 71,\n"," 381,\n"," 71,\n"," 381,\n"," 76,\n"," 261,\n"," 202,\n"," 261,\n"," 180,\n"," 266,\n"," 199,\n"," 199,\n"," 204,\n"," 266,\n"," 381,\n"," 68,\n"," 381,\n"," 40,\n"," 381,\n"," 44,\n"," 381,\n"," 47,\n"," 381,\n"," 68,\n"," 381,\n"," 81,\n"," 277,\n"," 196,\n"," 196,\n"," 209,\n"," 266,\n"," 381,\n"," 68,\n"," 381,\n"," 68,\n"," 381,\n"," 60,\n"," 266,\n"," 196,\n"," 196,\n"," 261,\n"," 381,\n"," 68,\n"," 381,\n"," 68,\n"," 381,\n"," 60,\n"," 261,\n"," 188,\n"," 188,\n"," 261,\n"," 196,\n"," 196,\n"," 261,\n"," 381,\n"," 68,\n"," 381,\n"," 44,\n"," 381,\n"," 47,\n"," 381,\n"," 52,\n"," 381,\n"," 68,\n"," 266,\n"," 196,\n"," 196,\n"," 261,\n"," 381,\n"," 69,\n"," 381,\n"," 69,\n"," 381,\n"," 74,\n"," 261,\n"," 168,\n"," 172,\n"," 175,\n"," 172,\n"," 175,\n"," 260,\n"," 197,\n"," 197,\n"," 261,\n"," 381,\n"," 71,\n"," 381,\n"," 71,\n"," 381,\n"," 76,\n"," 261,\n"," 202,\n"," 261,\n"," 180,\n"," 266,\n"," 199,\n"," 199,\n"," 204,\n"," 266,\n"," 381,\n"," 66,\n"," 381,\n"," 38,\n"," 381,\n"," 42,\n"," 381,\n"," 45,\n"," 381,\n"," 66,\n"," 381,\n"," 81,\n"," 277,\n"," 194,\n"," 194,\n"," 209,\n"," 266,\n"," 381,\n"," 68,\n"," 381,\n"," 68,\n"," 261,\n"," 196,\n"," 196,\n"," 258,\n"," 381,\n"," 66,\n"," 381,\n"," 66,\n"," 261,\n"," 194,\n"," 194,\n"," 258,\n"," 381,\n"," 64,\n"," 381,\n"," 64,\n"," 261,\n"," 192,\n"," 192,\n"," 266,\n"," 381,\n"," 66,\n"," 381,\n"," 66,\n"," 381,\n"," 81,\n"," 277,\n"," 194,\n"," 194,\n"," 209,\n"," 166,\n"," 170,\n"," 173,\n"," 266,\n"," 381,\n"," 68,\n"," 381,\n"," 68,\n"," 258,\n"," 196,\n"," 196,\n"," 261,\n"," 381,\n"," 66,\n"," 381,\n"," 66,\n"," 258,\n"," 194,\n"," 194,\n"," 261,\n"," 381,\n"," 64,\n"," 381,\n"," 64,\n"," 258,\n"," 192,\n"," 192,\n"," 269,\n"," 381,\n"," 66,\n"," 381,\n"," 50,\n"," 381,\n"," 54,\n"," 381,\n"," 57,\n"," 381,\n"," 66,\n"," 381,\n"," 81,\n"," 277,\n"," 194,\n"," 194,\n"," 209,\n"," 266,\n"," 381,\n"," 68,\n"," 381,\n"," 68,\n"," 258,\n"," 196,\n"," 196,\n"," 261,\n"," 381,\n"," 66,\n"," 381,\n"," 66,\n"," 258,\n"," 178,\n"," 182,\n"," 185,\n"," 194,\n"," 194,\n"," 261,\n"," 381,\n"," 64,\n"," 381,\n"," 64,\n"," 258,\n"," 192,\n"," 192,\n"," 269,\n"," 381,\n"," 66,\n"," 381,\n"," 38,\n"," 381,\n"," 42,\n"," 381,\n"," 45,\n"," 381,\n"," 66,\n"," 381,\n"," 81,\n"," 277,\n"," 209,\n"," 277,\n"," 194,\n"," 166,\n"," 170,\n"," 173,\n"," 194,\n"," 277,\n"," 381,\n"," 64,\n"," 381,\n"," 48,\n"," 381,\n"," 55,\n"," 381,\n"," 52,\n"," 381,\n"," 64,\n"," 381,\n"," 81,\n"," 277,\n"," 192,\n"," 192,\n"," 209,\n"," 266,\n"," 381,\n"," 64,\n"," 381,\n"," 64,\n"," 266,\n"," 192,\n"," 192,\n"," 261,\n"," 381,\n"," 64,\n"," 381,\n"," 64,\n"," 266,\n"," 192,\n"," 192,\n"," 261,\n"," 381,\n"," 64,\n"," 381,\n"," 64,\n"," 266,\n"," 192,\n"," 192,\n"," 261,\n"," 381,\n"," 66,\n"," 381,\n"," 66,\n"," 261,\n"," 176,\n"," 183,\n"," 180,\n"," 260,\n"," 194,\n"," 194,\n"," 261,\n"," 381,\n"," 67,\n"," 381,\n"," 67,\n"," 266,\n"," 195,\n"," 195,\n"," 261,\n"," 381,\n"," 69,\n"," 381,\n"," 69,\n"," 266,\n"," 197,\n"," 197,\n"," 261,\n"," 381,\n"," 67,\n"," 381,\n"," 60,\n"," 381,\n"," 55,\n"," 381,\n"," 67,\n"," 381,\n"," 81,\n"," 266,\n"," 195,\n"," 195,\n"," 261,\n"," 381,\n"," 66,\n"," 381,\n"," 66,\n"," 261,\n"," 209,\n"," 261,\n"," 194,\n"," 194,\n"," 261,\n"," 381,\n"," 64,\n"," 381,\n"," 64,\n"," 266,\n"," 188,\n"," 183,\n"," 192,\n"," 192,\n"," 261,\n"," 381,\n"," 62,\n"," 381,\n"," 62,\n"," 266,\n"," 190,\n"," 190,\n"," 261,\n"," 381,\n"," 64,\n"," 381,\n"," 58,\n"," 381,\n"," 55,\n"," 381,\n"," 64,\n"," 381,\n"," 81,\n"," 277,\n"," 209,\n"," 277,\n"," 192,\n"," 186,\n"," 183,\n"," 192,\n"," 277,\n"," 381,\n"," 67,\n"," 381,\n"," 51,\n"," 381,\n"," 55,\n"," 381,\n"," 58,\n"," 381,\n"," 67,\n"," 381,\n"," 81,\n"," 277,\n"," 195,\n"," 195,\n"," 209,\n"," 266,\n"," 381,\n"," 67,\n"," 381,\n"," 67,\n"," 266,\n"," 195,\n"," 195,\n"," 261,\n"," 381,\n"," 67,\n"," 381,\n"," 67,\n"," 266,\n"," 195,\n"," 195,\n"," 261,\n"," 381,\n"," 67,\n"," 381,\n"," 67,\n"," 266,\n"," 195,\n"," 195,\n"," 261,\n"," 381,\n"," 69,\n"," 381,\n"," 69,\n"," 261,\n"," 179,\n"," 183,\n"," 186,\n"," 260,\n"," 197,\n"," 197,\n"," 261,\n"," 381,\n"," 70,\n"," 381,\n"," 70,\n"," 266,\n"," 198,\n"," 198,\n"," 261,\n"," 381,\n"," 72,\n"," 381,\n"," 72,\n"," 266,\n"," 200,\n"," 200,\n"," 261,\n"," 381,\n"," 70,\n"," 381,\n"," 60,\n"," 381,\n"," 55,\n"," 381,\n"," 70,\n"," 381,\n"," 81,\n"," 266,\n"," 198,\n"," 198,\n"," 261,\n"," 381,\n"," 69,\n"," 381,\n"," 69,\n"," 261,\n"," 209,\n"," 261,\n"," 197,\n"," 197,\n"," 261,\n"," 381,\n"," 67,\n"," 381,\n"," 67,\n"," 266,\n"," 188,\n"," 183,\n"," 195,\n"," 195,\n"," 261,\n"," 381,\n"," 65,\n"," 381,\n"," 65,\n"," 266,\n"," 193,\n"," 193,\n"," 261,\n"," 381,\n"," 67,\n"," 381,\n"," 58,\n"," 381,\n"," 55,\n"," 381,\n"," 67,\n"," 381,\n"," 81,\n"," 277,\n"," 209,\n"," 277,\n"," 195,\n"," 186,\n"," 183,\n"," 195,\n"," 277,\n"," 381,\n"," 68,\n"," 381,\n"," 52,\n"," 381,\n"," 56,\n"," 381,\n"," 59,\n"," 381,\n"," 68,\n"," 381,\n"," 81,\n"," 381,\n"," 77,\n"," 277,\n"," 196,\n"," 196,\n"," 209,\n"," 205,\n"," 266,\n"," 381,\n"," 68,\n"," 381,\n"," 68,\n"," 266,\n"," 196,\n"," 196,\n"," 261,\n"," 381,\n"," 68,\n"," 381,\n"," 68,\n"," 266,\n"," 196,\n"," 196,\n"," 261,\n"," 381,\n"," 68,\n"," 381,\n"," 68,\n"," 381,\n"," 77,\n"," 266,\n"," 196,\n"," 196,\n"," 261,\n"," 381,\n"," 69,\n"," 381,\n"," 69,\n"," 261,\n"," 205,\n"," 180,\n"," 184,\n"," 187,\n"," 260,\n"," 197,\n"," 197,\n"," 261,\n"," 381,\n"," 71,\n"," 381,\n"," 71,\n"," 277,\n"," 199,\n"," 199,\n"," 266,\n"," 381,\n"," 71,\n"," 381,\n"," 71,\n"," 381,\n"," 77,\n"," 266,\n"," 199,\n"," 199,\n"," 261,\n"," 381,\n"," 76,\n"," 381,\n"," 76,\n"," 261,\n"," 205,\n"," 261,\n"," 204,\n"," 204,\n"," 261,\n"," 381,\n"," 68,\n"," 381,\n"," 68,\n"," 277,\n"," 196,\n"," 196,\n"," 266,\n"," 381,\n"," 68,\n"," 381,\n"," 68,\n"," 381,\n"," 77,\n"," 266,\n"," 196,\n"," 196,\n"," 261,\n"," 381,\n"," 69,\n"," 381,\n"," 69,\n"," 261,\n"," 205,\n"," 261,\n"," 197,\n"," 197,\n"," ...]"]},"metadata":{},"execution_count":22}]},{"cell_type":"code","source":["def midiToText(midifile):\n","    #load midi file\n","    midi_data = pretty_midi.PrettyMIDI(midifile)\n","    #create list of notes for each instrument in midi file\n","    total_note_list = []\n","    #loop over all instruments in midi file\n","    for i in range(len(midi_data.instruments[:])):\n","        #create list of notes for each instrument\n","        single_instrument_note_list = []\n","        for note in midi_data.instruments[i].notes[:]:\n","            #change note's pitch from numerical to text value\n","            note.pitch = pretty_midi.note_number_to_name(note.pitch)\n","            single_instrument_note_list.append(note)\n","        total_note_list.append(single_instrument_note_list)\n","    return total_note_list"],"metadata":{"id":"BN2BlOIOtSdM"},"execution_count":null,"outputs":[]},{"cell_type":"code","source":[],"metadata":{"id":"-NrQL69l6-Z7"},"execution_count":null,"outputs":[]}]}